 <svg version="1.0" xmlns="http://www.w3.org/2000/svg"  width="300.000000pt" height="303.000000pt" viewBox="0 0 300.000000 303.000000"  preserveAspectRatio="xMidYMid meet">  <g transform="translate(0.000000,303.000000) scale(0.100000,-0.100000)" fill="#000000" stroke="none"> <path d="M0 1515 l0 -1515 1500 0 1500 0 0 1515 0 1515 -1500 0 -1500 0 0 -1515z m1680 1300 c104 -13 260 -61 373 -115 446 -211 735 -662 740 -1150 2 -120 -7 -252 -17 -269 -2 -3 -7 -22 -10 -42 -3 -20 -20 -78 -37 -130 -154 -462 -549 -796 -1034 -874 -190 -31 -434 -11 -610 50 -190 66 -404 201 -526 332 -150 160 -280 397 -324 587 -105 454 12 896 322 1217 48 50 120 115 161 146 181 136 459 245 647 252 33 1 62 5 65 8 5 5 178 -3 250 -12z"/> <path d="M1353 2788 c-6 -7 -13 -21 -17 -32 -5 -15 -2 -17 13 -13 14 3 18 1 14 -10 -3 -9 8 -26 28 -43 l34 -28 26 24 25 24 14 -24 c7 -14 26 -30 41 -35 31 -11 35 -21 19 -52 -8 -13 -7 -19 1 -19 6 0 13 9 16 21 5 20 6 20 17 -3 6 -13 26 -32 43 -43 18 -11 32 -26 33 -33 0 -7 5 -10 11 -6 13 8 0 -19 -25 -51 -15 -20 -15 -20 -16 2 0 12 7 23 18 26 15 4 15 5 -2 6 -15 1 -16 4 -7 15 10 12 6 15 -19 21 -16 4 -30 13 -30 20 0 20 -19 28 -34 16 -10 -9 -15 -8 -20 5 -9 24 -7 46 4 39 6 -3 10 -1 10 5 0 6 -13 16 -29 21 -16 6 -32 17 -35 25 -7 17 -30 18 -44 1 -12 -14 -4 -31 18 -40 12 -4 12 -6 -2 -6 -9 -1 -44 27 -77 61 -46 48 -59 68 -55 84 5 21 4 21 -53 12 -32 -4 -69 -13 -83 -18 -14 -5 -40 -12 -59 -16 -52 -10 -198 -73 -264 -113 -32 -20 -70 -42 -85 -50 -15 -8 -29 -17 -32 -21 -3 -3 -23 -19 -45 -36 -89 -66 -275 -277 -275 -311 0 -6 -9 -18 -20 -28 -11 -10 -20 -22 -20 -28 0 -5 -10 -23 -22 -40 -13 -18 -22 -32 -20 -32 2 0 -6 -21 -18 -47 -52 -118 -108 -350 -80 -333 7 4 5 -5 -4 -23 -20 -38 -20 -56 -2 -49 10 4 14 0 13 -12 0 -11 -6 -17 -13 -14 -6 2 -14 -7 -18 -20 -6 -27 1 -219 10 -258 9 -38 24 -112 27 -132 5 -31 24 -42 44 -26 10 7 7 1 -6 -14 -27 -29 -22 -48 6 -26 17 13 17 13 0 -13 -10 -16 -13 -28 -8 -28 4 0 11 -13 14 -30 8 -38 64 -151 113 -226 21 -32 37 -62 36 -66 -1 -5 5 -8 13 -8 8 0 15 -6 15 -14 0 -8 10 -22 22 -30 12 -9 18 -16 13 -16 -5 0 35 -43 89 -95 53 -52 102 -95 109 -95 6 0 39 26 72 57 l60 58 -65 -68 c-35 -37 -59 -67 -53 -67 16 0 93 -52 93 -62 0 -5 4 -7 9 -4 4 3 17 -1 27 -9 39 -30 170 -88 201 -89 19 -1 33 -6 33 -13 0 -7 5 -13 10 -13 6 0 10 5 10 10 0 6 5 10 11 10 6 0 8 -7 5 -17 -4 -10 -4 -15 -1 -12 5 5 28 1 140 -27 11 -2 61 -7 110 -10 50 -3 96 -7 103 -9 7 -3 32 -2 57 2 35 4 41 8 32 18 -7 7 -55 57 -107 111 -52 54 -88 93 -79 86 9 -6 19 -9 22 -5 4 3 7 0 7 -7 0 -21 33 -40 48 -27 10 8 16 7 23 -4 14 -22 11 -33 -6 -19 -8 7 -15 8 -15 2 0 -5 6 -15 14 -21 16 -14 42 11 30 30 -4 8 -3 9 4 5 7 -4 12 -2 12 4 0 6 -13 16 -30 21 -16 6 -30 15 -30 19 0 12 32 2 60 -20 l25 -19 -23 -23 c-28 -31 -28 -42 3 -66 14 -11 25 -25 25 -31 0 -6 5 -11 10 -11 6 0 10 7 10 15 0 8 7 15 16 15 13 0 10 6 -10 27 -23 23 -30 25 -47 15 -10 -7 -19 -9 -19 -4 0 12 41 44 48 38 3 -3 2 -6 -3 -6 -4 0 8 -13 28 -29 l36 -28 -24 -23 c-24 -23 -35 -47 -16 -35 5 3 11 -3 14 -12 3 -15 6 -14 15 7 l11 25 7 -23 c4 -15 12 -21 23 -18 9 3 32 7 51 10 19 3 58 12 87 20 28 8 54 11 57 8 3 -3 6 0 6 6 0 7 3 11 8 10 9 -3 76 19 119 38 17 8 36 14 42 14 6 0 11 5 11 10 0 6 8 10 18 10 10 0 33 11 52 25 19 14 38 25 42 25 19 0 240 176 266 212 8 11 22 26 32 36 20 19 108 135 126 167 70 121 137 282 160 385 4 19 9 42 11 50 12 50 13 79 3 85 -7 4 -16 1 -21 -6 -6 -10 -8 -6 -7 14 2 24 28 41 28 17 0 -5 5 -10 10 -10 6 0 10 7 10 15 0 8 -9 15 -20 15 -13 0 -18 5 -13 15 3 9 2 15 -3 14 -20 -3 -54 14 -54 27 0 19 -36 18 -44 -2 -7 -19 0 -34 17 -34 7 0 17 -10 22 -22 6 -13 16 -22 23 -20 7 1 12 -5 12 -15 0 -15 -1 -15 -18 0 -10 10 -22 15 -25 12 -4 -3 -5 -3 -3 0 2 3 -21 31 -50 61 -30 30 -54 59 -54 63 0 5 7 14 16 22 13 10 17 10 25 -2 5 -8 9 -17 9 -21 0 -13 -18 -9 -23 5 -2 6 -8 9 -13 4 -4 -4 0 -15 9 -24 13 -13 19 -14 31 -4 8 7 12 20 9 29 -4 14 -3 15 6 2 7 -11 6 -19 -6 -32 -23 -26 -9 -34 16 -9 12 12 21 23 21 26 0 12 -36 43 -57 49 -13 4 -23 14 -23 22 0 8 -7 14 -15 14 -19 0 -19 16 0 24 8 3 14 2 13 -2 -5 -16 24 -52 42 -52 10 0 27 -12 37 -27 10 -15 36 -44 57 -65 31 -30 42 -35 48 -24 7 13 3 232 -5 266 -2 8 -9 42 -16 75 -6 33 -16 71 -22 84 -8 20 -12 21 -27 10 -16 -13 -16 -12 -1 6 28 35 32 45 13 38 -14 -5 -16 -2 -12 15 4 12 2 25 -3 28 -5 3 -9 12 -9 21 0 17 -79 184 -92 193 -4 3 -12 19 -18 35 -9 23 -13 26 -20 15 -8 -13 -10 -12 -10 3 0 9 -3 17 -7 17 -4 0 -37 -28 -72 -62 -36 -35 -58 -54 -50 -43 8 10 38 43 68 73 62 62 61 85 -2 26 l-42 -39 38 41 39 41 -29 41 c-15 23 -36 44 -47 48 -15 5 -16 8 -5 15 9 6 10 9 2 9 -15 0 -69 52 -65 63 1 4 -4 7 -11 7 -7 0 -29 14 -47 30 -18 17 -38 30 -42 30 -5 0 -7 4 -3 10 3 5 -9 17 -27 26 -18 9 -51 28 -73 42 -22 14 -42 25 -45 25 -3 -1 -17 8 -32 18 -14 10 -31 19 -36 19 -6 0 -27 9 -46 21 -20 12 -36 18 -36 14 0 -3 -10 1 -21 9 -12 8 -28 12 -35 9 -8 -3 -14 0 -14 6 0 18 -24 12 -38 -9 -7 -11 -18 -20 -25 -20 -7 1 -5 6 6 14 30 23 19 33 -55 49 -120 26 -148 30 -263 32 -114 2 -148 -2 -140 -15 3 -4 -2 -11 -11 -14 -12 -4 -14 -1 -9 14 7 23 2 26 -12 8z m97 -61 c12 -4 12 -6 -2 -6 -9 -1 -24 6 -32 15 -15 15 -21 8 -17 -18 0 -5 -3 -8 -9 -8 -13 0 -13 3 2 35 12 26 12 26 27 7 9 -11 23 -22 31 -25z m-12 -34 c-5 -7 -14 -10 -19 -7 -16 10 -9 23 10 21 15 -1 17 -4 9 -14z m33 -46 c-13 -13 -26 -3 -16 12 3 6 11 8 17 5 6 -4 6 -10 -1 -17z m49 -50 c0 -5 -8 -3 -17 4 -10 7 -20 14 -22 16 -1 1 0 7 5 14 5 9 11 7 21 -6 7 -11 13 -23 13 -28z m-320 10 c0 -2 -10 -12 -22 -23 l-23 -19 19 23 c18 21 26 27 26 19z m286 -12 c4 -8 15 -15 25 -15 10 0 18 -3 17 -7 -3 -17 15 -43 31 -43 9 0 21 -10 26 -22 6 -13 16 -22 22 -21 7 2 11 -6 10 -17 -1 -15 -16 -5 -72 47 -38 37 -77 73 -85 80 -12 11 -12 13 3 13 10 0 20 -7 23 -15z m244 -10 c-7 -9 -15 -13 -17 -11 -6 6 20 36 26 30 2 -2 -2 -10 -9 -19z m40 5 c-6 -11 -13 -20 -16 -20 -2 0 0 9 6 20 6 11 13 20 16 20 2 0 0 -9 -6 -20z m-42 -40 c-7 -11 -19 -22 -28 -25 -8 -4 -4 5 9 19 29 31 36 33 19 6z m-148 0 c0 -5 -4 -10 -10 -10 -5 0 -10 5 -10 10 0 6 5 10 10 10 6 0 10 -4 10 -10z m660 5 c0 -2 -10 -9 -22 -15 -22 -11 -22 -10 -4 4 21 17 26 19 26 11z m-1071 -28 c-2 -1 -13 -9 -24 -17 -19 -14 -19 -14 -6 3 7 9 18 17 24 17 6 0 8 -1 6 -3z m445 -18 c-3 -5 -10 -7 -15 -3 -5 3 -7 10 -3 15 3 5 10 7 15 3 5 -3 7 -10 3 -15z m626 7 c0 -2 -8 -10 -17 -17 -16 -13 -17 -12 -4 4 13 16 21 21 21 13z m-1165 -36 c-10 -11 -21 -18 -23 -15 -3 3 3 12 14 20 27 20 30 18 9 -5z m1095 7 c0 -2 -15 -16 -32 -33 l-33 -29 29 33 c28 30 36 37 36 29z m-1100 -51 c0 -2 -8 -10 -17 -17 -16 -13 -17 -12 -4 4 13 16 21 21 21 13z m480 -26 c0 -5 -5 -10 -11 -10 -5 0 -7 5 -4 10 3 6 8 10 11 10 2 0 4 -4 4 -10z m30 -10 c-13 -11 -25 -20 -28 -20 -3 0 3 9 13 20 10 11 23 20 28 20 6 0 0 -9 -13 -20z m-590 -14 c0 -2 -7 -7 -16 -10 -8 -3 -12 -2 -9 4 6 10 25 14 25 6z m501 -39 c-13 -12 -20 -15 -15 -7 12 22 28 39 33 34 3 -3 -6 -15 -18 -27z m-541 9 c0 -2 -8 -10 -17 -17 -16 -13 -17 -12 -4 4 13 16 21 21 21 13z m1130 0 c0 -2 -8 -10 -17 -17 -16 -13 -17 -12 -4 4 13 16 21 21 21 13z m-1119 -43 c-8 -15 -10 -15 -11 -2 0 17 10 32 18 25 2 -3 -1 -13 -7 -23z m524 -11 l-28 -27 24 31 c13 17 26 30 28 27 3 -2 -8 -16 -24 -31z m514 5 c-2 -1 -15 -11 -29 -22 l-25 -20 19 23 c11 12 24 22 29 22 6 0 8 -1 6 -3z m-1109 -11 c0 -2 -8 -10 -17 -17 -16 -13 -17 -12 -4 4 13 16 21 21 21 13z m1120 -10 c0 -2 -8 -10 -17 -17 -16 -13 -17 -12 -4 4 13 16 21 21 21 13z m-605 -26 c-10 -11 -21 -18 -23 -15 -3 3 3 12 14 20 27 20 30 18 9 -5z m493 -17 c-15 -35 -28 -51 -28 -35 0 13 29 62 36 62 2 0 -2 -12 -8 -27z m68 -35 c8 -15 10 -28 5 -28 -9 0 -25 30 -23 43 2 9 -10 9 -23 -1 -15 -11 -18 -59 -4 -68 8 -5 10 -2 6 8 -5 13 -1 14 24 4 24 -9 32 -8 40 4 10 16 7 18 55 -45 10 -13 21 -22 25 -19 4 2 17 -4 29 -14 l21 -17 -25 -24 c-14 -14 -26 -31 -26 -39 0 -7 11 -1 25 16 l24 29 39 -36 c24 -23 35 -39 28 -43 -6 -4 2 -8 17 -8 16 0 26 -4 22 -10 -3 -5 -15 -6 -28 -1 -15 6 -29 4 -41 -5 -17 -12 -17 -14 -3 -28 21 -21 27 -20 27 4 0 20 1 20 24 3 13 -10 22 -20 20 -22 -2 -2 -10 1 -18 8 -11 9 -15 8 -20 -4 -9 -25 -25 -18 -68 30 -23 25 -43 43 -46 41 -8 -9 -12 -126 -3 -126 4 0 18 9 31 20 39 34 35 22 -9 -25 -42 -45 -56 -72 -23 -42 27 24 39 21 16 -4 -16 -18 -19 -34 -17 -108 2 -47 3 -144 3 -215 0 -138 4 -171 23 -159 6 4 2 -6 -11 -22 -25 -31 -22 -46 5 -24 15 12 14 11 -2 -14 -15 -24 -17 -43 -12 -146 5 -116 5 -119 36 -151 17 -18 31 -37 31 -41 0 -5 15 -19 34 -32 34 -22 36 -39 7 -45 -12 -3 -12 0 -1 12 7 9 8 16 2 16 -5 0 -15 -7 -22 -15 -16 -20 -30 -19 -30 1 0 11 5 14 16 10 10 -4 14 -2 11 6 -2 7 -10 12 -16 11 -6 -2 -11 3 -11 11 0 22 -19 30 -35 16 -19 -16 -19 -40 -1 -40 8 0 18 -9 21 -20 6 -18 17 -25 38 -21 4 1 3 -8 -3 -19 -6 -11 -13 -20 -16 -20 -3 0 -3 4 0 9 3 4 -14 26 -37 48 -23 22 -57 57 -76 78 -30 35 -39 39 -90 42 -35 2 -60 9 -67 18 -6 8 -16 15 -23 15 -15 0 -14 10 6 32 13 15 14 18 2 18 -8 0 -21 -6 -28 -13 -10 -10 -11 -9 -6 5 4 9 12 19 19 21 14 5 22 177 9 177 -4 0 -27 -31 -51 -69 -49 -80 -73 -93 -108 -60 -13 12 -24 26 -24 30 0 5 -15 29 -32 55 l-33 46 -5 -120 c-3 -80 -10 -124 -19 -136 -10 -12 -31 -16 -92 -16 -91 0 -119 17 -119 72 l0 31 -22 -19 -23 -19 20 25 c81 99 48 76 -92 -62 -67 -67 -123 -119 -123 -116 0 3 54 59 120 125 103 102 120 123 124 156 3 21 1 35 -3 32 -5 -2 -6 10 -2 28 9 48 2 101 -12 89 -7 -6 -16 -10 -20 -10 -5 0 -32 -18 -60 -41 -29 -22 -79 -60 -112 -85 -33 -24 -84 -63 -112 -85 -29 -22 -53 -37 -53 -33 0 4 -4 0 -10 -8 -5 -8 -13 -11 -17 -6 -4 4 6 19 22 32 44 36 405 314 408 314 1 0 1 -88 -1 -195 l-3 -195 86 0 85 0 0 177 0 177 33 -55 c18 -30 54 -85 79 -122 l46 -69 68 107 c38 58 75 114 82 123 10 14 12 -16 9 -160 l-3 -178 85 0 86 0 -2 306 -2 307 -88 -2 c-102 -2 -90 7 -173 -136 -30 -52 -57 -94 -60 -94 -3 0 -36 51 -74 114 -38 63 -71 115 -73 115 -2 0 -118 -101 -256 -224 -303 -269 -383 -337 -369 -310 12 23 103 114 163 164 67 55 139 122 139 129 0 8 -130 5 -138 -3 -11 -12 -21 -5 -15 10 5 14 3 15 -15 5 -12 -7 -22 -8 -22 -3 0 5 -11 14 -24 20 -39 17 -106 82 -106 102 0 18 45 70 94 108 32 25 56 22 90 -9 24 -23 49 -24 71 -3 14 14 15 44 13 220 -3 252 -6 245 115 237 96 -6 119 -20 110 -66 l-6 -30 39 27 c49 33 124 36 168 7 17 -11 34 -17 39 -14 6 3 7 1 3 -6 -4 -6 0 -18 9 -27 9 -9 19 -29 22 -45 7 -38 16 -42 39 -21 34 31 135 93 145 90 6 -2 -13 -21 -41 -43 -28 -22 -75 -60 -103 -84 l-52 -45 -6 50 c-4 28 -12 60 -18 73 -30 54 -121 77 -182 45 -81 -41 -94 -234 -21 -296 l28 -23 -46 -36 -45 -35 3 225 2 226 -84 0 -85 0 -3 -216 c-3 -197 -5 -219 -22 -238 -11 -12 -30 -21 -43 -21 -29 0 -79 25 -90 44 -6 11 -21 2 -65 -39 l-57 -53 36 -35 c43 -44 108 -67 182 -67 86 1 120 19 242 127 86 75 123 102 151 107 50 9 95 49 109 96 7 22 23 49 35 61 l24 22 0 -47 c0 -26 7 -61 16 -77 19 -38 74 -63 117 -53 32 7 76 33 77 45 0 16 -33 18 -53 4 -31 -22 -64 -18 -92 10 -46 45 -35 55 61 55 l87 0 -6 46 c-6 54 -38 93 -81 96 l-28 3 33 27 c34 29 60 38 41 16 -7 -10 -1 -24 24 -52 l34 -39 0 66 c0 79 6 96 37 108 20 7 22 12 13 28 -7 14 -7 22 2 27 7 4 8 3 4 -4 -10 -16 5 -15 26 2 17 12 17 14 -2 31 -18 16 -20 16 -20 2 0 -10 -4 -17 -10 -17 -12 0 -13 17 -1 24 5 3 7 15 4 27 l-6 20 -22 -21 c-22 -21 -24 -21 -34 -3 -8 14 -10 15 -11 2 0 -8 11 -25 25 -37 14 -12 25 -27 25 -34 0 -6 -24 15 -54 48 -36 39 -51 61 -43 66 7 4 12 11 12 15 1 4 5 18 9 31 6 19 10 21 23 11 8 -7 21 -25 29 -41z m-1175 3 c-6 -11 -11 -23 -11 -26 0 -12 25 1 26 13 1 7 2 16 3 21 0 5 9 11 20 14 12 3 23 -4 35 -24 10 -16 22 -26 28 -23 7 4 8 2 4 -4 -4 -7 -2 -12 6 -12 7 0 4 -8 -9 -21 -11 -12 -26 -18 -32 -15 -16 10 -4 26 14 19 8 -3 15 0 15 6 0 6 -7 11 -15 11 -8 0 -15 7 -15 15 0 8 -5 15 -11 15 -5 0 -7 5 -3 11 4 7 -1 10 -12 7 -19 -3 -34 -68 -15 -68 6 0 39 -30 75 -66 62 -64 94 -77 83 -32 -4 16 -3 17 9 7 10 -8 14 -8 14 0 0 6 -12 19 -27 28 -41 27 -63 46 -63 57 0 5 13 -2 28 -17 15 -15 34 -27 40 -27 7 0 17 -11 24 -25 6 -13 15 -22 19 -19 5 3 9 0 9 -7 0 -18 41 -59 59 -59 12 0 12 -3 3 -12 -10 -10 -14 -10 -21 0 -4 8 -19 11 -34 8 -27 -5 -40 1 -31 16 3 5 13 3 22 -4 13 -11 14 -11 10 2 -3 8 -15 15 -27 14 -11 0 -21 3 -21 8 0 5 -4 6 -10 3 -5 -3 -10 -11 -10 -16 0 -6 5 -7 10 -4 6 3 10 0 10 -7 0 -7 12 -24 25 -37 14 -13 25 -27 25 -33 0 -5 5 -6 10 -3 6 3 10 -1 10 -9 0 -23 18 -20 22 4 2 15 7 17 18 10 13 -8 12 -11 -5 -24 -11 -9 -23 -16 -26 -16 -3 0 -42 36 -85 81 -43 44 -109 111 -146 148 -67 68 -68 68 -56 102 6 18 13 28 15 22 3 -7 0 -21 -6 -32z m639 35 c0 -2 -8 -10 -17 -17 -16 -13 -17 -12 -4 4 13 16 21 21 21 13z m914 -136 c-97 -99 -125 -120 -48 -37 93 101 119 126 128 127 5 0 -31 -40 -80 -90z m-1507 65 c0 -8 -4 -15 -9 -15 -10 0 -11 14 -1 23 9 10 10 9 10 -8z m493 12 c0 -2 -19 -21 -42 -42 -29 -27 -35 -30 -18 -10 31 36 60 62 60 52z m510 -31 c0 -2 -8 -10 -17 -17 -16 -13 -17 -12 -4 4 13 16 21 21 21 13z m-544 -44 c-17 -16 -18 -16 -5 5 7 12 15 20 18 17 3 -2 -3 -12 -13 -22z m563 15 c-2 -1 -13 -9 -24 -17 -19 -14 -19 -14 -6 3 7 9 18 17 24 17 6 0 8 -1 6 -3z m531 -10 c0 -2 -19 -21 -42 -42 l-43 -40 40 43 c36 39 45 47 45 39z m-1470 -17 c0 -5 -4 -10 -10 -10 -5 0 -10 5 -10 10 0 6 5 10 10 10 6 0 10 -4 10 -10z m320 -3 c0 -2 -10 -12 -22 -23 l-23 -19 19 23 c18 21 26 27 26 19z m530 -10 c0 -2 -12 -14 -27 -28 l-28 -24 24 28 c23 25 31 32 31 24z m-813 -28 c2 -17 -1 -18 -13 -9 -17 15 -18 30 -1 30 7 0 13 -9 14 -21z m-307 -3 c0 -2 -8 -10 -17 -17 -16 -13 -17 -12 -4 4 13 16 21 21 21 13z m1634 -50 c-3 -8 -13 -17 -22 -21 -13 -5 -13 -2 3 15 21 24 26 25 19 6z m-1715 -39 c-2 -1 -13 -9 -24 -17 -19 -14 -19 -14 -6 3 7 9 18 17 24 17 6 0 8 -1 6 -3z m499 -8 c-2 -6 -8 -10 -13 -10 -5 0 -11 4 -13 10 -2 6 4 11 13 11 9 0 15 -5 13 -11z m52 -3 c0 -9 -7 -12 -21 -9 -16 4 -17 8 -7 14 19 13 28 11 28 -5z m489 -32 c22 -28 37 -101 27 -136 -7 -25 -95 -98 -119 -98 -63 0 -87 181 -31 237 33 33 95 32 123 -3z m-1089 3 c0 -2 -9 -12 -19 -21 -14 -13 -21 -14 -27 -5 -4 7 -3 10 3 6 6 -4 16 0 23 8 12 14 20 19 20 12z m630 -1 c0 -2 -8 -10 -17 -17 -16 -13 -17 -12 -4 4 13 16 21 21 21 13z m-620 -29 c0 -2 -15 -16 -32 -33 l-33 -29 29 33 c28 30 36 37 36 29z m-60 -26 c0 -5 -7 -12 -16 -15 -14 -5 -15 -4 -4 9 14 17 20 19 20 6z m1396 -9 c11 -7 34 -45 34 -56 0 -3 -29 -6 -65 -6 -36 0 -65 4 -65 9 0 4 9 20 21 35 20 25 53 33 75 18z m804 -11 c0 -5 -7 -12 -16 -15 -14 -5 -15 -4 -4 9 14 17 20 19 20 6z m-1680 -5 c0 -2 -8 -10 -17 -17 -16 -13 -17 -12 -4 4 13 16 21 21 21 13z m1614 -21 c-4 -9 -16 -21 -28 -27 -19 -10 -18 -8 4 15 29 31 31 32 24 12z m-1604 -8 c0 -2 -14 -16 -32 -33 -18 -16 -26 -20 -18 -9 19 25 50 52 50 42z m-600 -11 c0 -2 -8 -10 -17 -17 -16 -13 -17 -12 -4 4 13 16 21 21 21 13z m520 -29 c0 -2 -10 -12 -22 -23 l-23 -19 19 23 c18 21 26 27 26 19z m1639 -34 c-40 -47 -42 -49 -34 -33 10 19 47 60 53 60 3 0 -5 -12 -19 -27z m-2219 3 c0 -2 -8 -10 -17 -17 -16 -13 -17 -12 -4 4 13 16 21 21 21 13z m590 0 c0 -2 -8 -10 -17 -17 -16 -13 -17 -12 -4 4 13 16 21 21 21 13z m-570 -20 c0 -2 -8 -10 -17 -17 -16 -13 -17 -12 -4 4 13 16 21 21 21 13z m510 0 c0 -2 -8 -10 -17 -17 -16 -13 -17 -12 -4 4 13 16 21 21 21 13z m745 -15 c-3 -6 -16 -16 -28 -22 -21 -11 -21 -10 2 15 23 25 40 29 26 7z m821 -36 c-15 -23 -15 -25 1 -25 10 0 27 -7 37 -15 16 -12 17 -18 8 -27 -9 -9 -19 -5 -44 21 -23 24 -28 35 -19 40 7 5 13 12 13 17 0 5 3 16 6 23 4 11 7 11 10 3 2 -7 -3 -24 -12 -37z m-2146 10 c0 -8 -10 -19 -21 -26 -22 -11 -21 -3 4 29 12 16 17 15 17 -3z m2188 3 c-2 -6 -10 -14 -16 -16 -7 -2 -10 2 -6 12 7 18 28 22 22 4z m32 2 c0 -5 -2 -10 -4 -10 -3 0 -8 5 -11 10 -3 6 -1 10 4 10 6 0 11 -4 11 -10z m-1700 -24 c0 -2 -8 -10 -17 -17 -16 -13 -17 -12 -4 4 13 16 21 21 21 13z m1732 -30 c3 3 9 0 14 -7 5 -9 1 -10 -17 -6 -13 4 -27 7 -30 7 -4 0 -9 10 -12 21 l-6 21 23 -21 c12 -12 25 -19 28 -15z m-2219 4 c16 -19 16 -20 -3 -20 -14 0 -18 5 -14 18 5 14 3 14 -11 -3 -15 -19 -14 -20 7 -29 31 -13 31 -13 22 -27 -5 -9 -10 -8 -20 5 -6 9 -15 13 -18 8 -3 -5 1 -15 9 -22 8 -7 15 -18 15 -24 -1 -6 -9 -1 -19 11 -20 24 -20 65 -1 88 15 18 12 19 33 -5z m1034 14 c-3 -4 -1 -16 5 -28 10 -20 10 -20 -11 1 -25 27 -26 33 -4 33 9 0 13 -3 10 -6z m-597 -38 c0 -2 -8 -10 -17 -17 -16 -13 -17 -12 -4 4 13 16 21 21 21 13z m40 1 c0 -2 -17 -19 -37 -38 l-37 -34 30 37 c25 31 44 46 44 35z m1590 -1 c0 -2 -8 -10 -17 -17 -16 -13 -17 -12 -4 4 13 16 21 21 21 13z m131 -19 c-13 -13 -26 -3 -16 12 3 6 11 8 17 5 6 -4 6 -10 -1 -17z m-2134 -20 c7 -5 11 -12 8 -17 -3 -5 7 -13 22 -16 44 -11 56 -28 34 -48 -17 -16 -19 -16 -25 0 -4 9 -4 19 -1 22 3 3 5 0 5 -6 0 -7 4 -12 10 -12 5 0 7 7 4 15 -4 8 -15 15 -26 15 -17 0 -19 -4 -13 -27 5 -23 4 -25 -9 -14 -9 8 -16 9 -16 3 0 -12 30 -38 31 -26 0 5 4 -2 10 -14 5 -13 18 -26 29 -29 11 -3 20 -11 20 -17 0 -12 44 -56 56 -56 3 0 4 7 0 15 -3 9 0 15 10 15 12 0 12 -4 4 -20 -11 -20 -35 -27 -42 -12 -1 4 -24 26 -50 50 -26 23 -45 42 -42 42 3 0 -7 10 -21 23 l-26 22 20 24 c12 14 18 27 13 30 -5 3 -11 14 -15 23 -3 10 -12 16 -19 14 -7 -1 -10 -1 -5 1 4 3 7 12 8 21 0 14 2 14 6 2 3 -8 12 -19 20 -23z m2023 20 c0 -2 -10 -12 -22 -23 l-23 -19 19 23 c18 21 26 27 26 19z m103 -31 c13 -12 30 -26 38 -29 11 -4 11 -6 -2 -6 -8 -1 -28 13 -44 29 -34 35 -27 41 8 6z m-197 -31 c-25 -25 -48 -45 -52 -45 -3 0 13 20 37 45 24 25 47 45 51 45 5 0 -12 -20 -36 -45z m245 22 c-13 -13 -26 -3 -16 12 3 6 11 8 17 5 6 -4 6 -10 -1 -17z m-2197 -18 c-3 -5 -10 -7 -15 -3 -5 3 -7 10 -3 15 3 5 10 7 15 3 5 -3 7 -10 3 -15z m2006 7 c0 -3 -4 -8 -10 -11 -5 -3 -10 -1 -10 4 0 6 5 11 10 11 6 0 10 -2 10 -4z m-1660 -19 c0 -2 -15 -16 -32 -33 l-33 -29 29 33 c28 30 36 37 36 29z m-353 -13 c-3 -3 -12 -4 -19 -1 -8 3 -5 6 6 6 11 1 17 -2 13 -5z m1167 -30 c10 1 21 8 26 15 5 9 10 10 14 3 4 -6 -2 -15 -11 -21 -15 -8 -16 -13 -5 -30 10 -18 10 -21 -5 -21 -9 0 -13 3 -10 7 4 3 -6 16 -21 27 -15 12 -28 28 -30 36 -2 12 0 12 11 -2 7 -9 21 -16 31 -14z m-1001 -41 c17 -9 17 -11 -4 -37 -16 -20 -24 -24 -30 -15 -11 18 -2 29 18 22 11 -4 14 -3 9 5 -4 7 -14 12 -22 12 -8 0 -13 4 -10 9 3 5 -1 14 -9 21 -8 7 -15 17 -15 23 0 6 10 1 23 -10 12 -11 30 -25 40 -30z m1786 44 c-2 -1 -15 -11 -29 -22 l-25 -20 19 23 c11 12 24 22 29 22 6 0 8 -1 6 -3z m361 -27 c0 -5 -4 -10 -10 -10 -5 0 -10 5 -10 10 0 6 5 10 10 10 6 0 10 -4 10 -10z m-459 -29 c-12 -12 -21 -18 -21 -14 0 10 33 44 37 39 3 -2 -5 -14 -16 -25z m-1741 9 c0 -5 -4 -10 -10 -10 -5 0 -10 5 -10 10 0 6 5 10 10 10 6 0 10 -4 10 -10z m1141 0 c13 -8 19 -21 18 -43 -1 -27 -2 -28 -7 -10 -4 13 -15 32 -24 43 -20 22 -16 25 13 10z m-1 -55 c0 -8 -30 -6 -31 3 0 4 -2 15 -4 26 -3 17 -2 17 16 -2 10 -12 19 -24 19 -27z m1098 34 c-2 -6 -8 -10 -13 -10 -5 0 -11 4 -13 10 -2 6 4 11 13 11 9 0 15 -5 13 -11z m-2151 -12 c0 -8 -6 -14 -13 -14 -7 0 -10 6 -7 14 3 7 8 13 12 13 4 0 8 -6 8 -13z m1658 -16 c-3 -6 -11 -11 -17 -11 -6 0 -6 6 2 15 14 17 26 13 15 -4z m-541 -6 c-5 -12 -10 -13 -20 -4 -19 15 -18 19 6 19 13 0 18 -5 14 -15z m-1092 -27 c-7 -7 -12 -8 -12 -2 0 14 12 26 19 19 2 -3 -1 -11 -7 -17z m1578 17 c0 -1 -10 -10 -22 -21 -14 -12 -18 -13 -10 -3 6 9 10 18 7 21 -3 2 2 5 10 5 8 0 15 -1 15 -2z m-1087 -30 c-3 -9 -8 -14 -10 -11 -3 3 -2 9 2 15 9 16 15 13 8 -4z m-50 -10 c-3 -9 -8 -14 -10 -11 -3 3 -2 9 2 15 9 16 15 13 8 -4z m1627 -4 c0 -5 -7 -12 -16 -15 -14 -5 -15 -4 -4 9 14 17 20 19 20 6z m30 -16 c-7 -8 -17 -15 -23 -15 -6 0 -2 7 9 15 25 19 30 19 14 0z m-2220 1 c0 -2 -8 -10 -17 -17 -16 -13 -17 -12 -4 4 13 16 21 21 21 13z m590 1 c0 -2 -12 -14 -27 -28 -20 -18 -24 -19 -13 -4 18 24 40 42 40 32z m1570 -21 c0 -2 -8 -10 -17 -17 -16 -13 -17 -12 -4 4 13 16 21 21 21 13z m-1650 -9 c0 -2 -10 -12 -22 -23 l-23 -19 19 23 c18 21 26 27 26 19z m-560 -21 c0 -2 -8 -10 -17 -17 -16 -13 -17 -12 -4 4 13 16 21 21 21 13z m40 1 c0 -2 -17 -19 -37 -38 l-38 -34 34 38 c33 34 41 42 41 34z m540 -1 c0 -2 -8 -10 -17 -17 -16 -13 -17 -12 -4 4 13 16 21 21 21 13z m-70 -30 c0 -2 -8 -10 -17 -17 -16 -13 -17 -12 -4 4 13 16 21 21 21 13z m-550 -10 c0 -2 -8 -10 -17 -17 -16 -13 -17 -12 -4 4 13 16 21 21 21 13z m2150 -29 c0 -2 -10 -12 -22 -23 l-23 -19 19 23 c18 21 26 27 26 19z m24 -16 c3 -5 -7 -16 -22 -25 l-27 -17 22 19 c12 11 19 22 16 26 -4 3 -4 6 0 6 3 0 8 -4 11 -9z m-1754 -44 c0 -7 -7 -22 -15 -33 -13 -17 -13 -16 -3 14 13 34 18 40 18 19z m44 -11 c-3 -8 -14 -16 -24 -19 -16 -4 -17 -2 -7 14 14 22 39 26 31 5z m1656 -5 c0 -5 -7 -12 -16 -15 -14 -5 -15 -4 -4 9 14 17 20 19 20 6z m-1635 -11 c-3 -5 -1 -10 5 -10 6 0 8 -4 5 -10 -3 -5 1 -10 9 -10 8 0 20 -10 27 -21 15 -30 61 -68 79 -69 9 0 24 -14 34 -31 18 -30 18 -30 -2 -36 -35 -9 -40 -53 -6 -53 8 0 13 -3 10 -8 -8 -13 22 -44 36 -37 11 7 11 5 0 -6 -11 -12 -23 -3 -78 53 -35 37 -64 72 -64 77 0 6 10 17 21 25 21 14 21 14 -10 45 -35 34 -46 39 -37 16 3 -8 0 -14 -6 -12 -6 1 -13 -4 -16 -12 -3 -9 0 -11 8 -6 9 6 11 4 6 -4 -5 -7 0 -19 10 -28 17 -14 17 -14 -6 0 -29 17 -44 92 -17 81 8 -3 18 -1 22 5 3 7 -2 11 -14 11 -12 0 -21 4 -21 9 0 5 -3 16 -6 25 -3 9 -1 16 6 16 6 0 8 -4 5 -10z m1088 -10 c3 -11 1 -18 -4 -14 -5 3 -9 0 -9 -5 0 -6 -5 -11 -12 -11 -9 0 -9 3 -1 11 6 6 9 18 6 25 -3 8 -1 14 5 14 5 0 12 -9 15 -20z m487 7 c0 -2 -12 -14 -27 -28 l-26 -24 19 27 c16 23 34 36 34 25z m-1598 -24 c-6 -3 -9 -10 -5 -16 4 -7 -1 -5 -12 3 -17 14 -17 13 -11 -10 6 -23 6 -23 -7 -8 -8 10 -17 15 -20 11 -4 -3 -7 -1 -7 5 0 13 17 19 50 19 14 0 19 -2 12 -4z m1161 -35 c-5 -10 -33 10 -33 23 0 5 9 4 19 -3 11 -7 17 -16 14 -20z m-51 0 c-7 -7 -12 -8 -12 -2 0 14 12 26 19 19 2 -3 -1 -11 -7 -17z m-1223 -15 c-20 -27 -49 -55 -49 -47 0 6 53 64 59 64 2 0 -3 -8 -10 -17z m45 3 c-3 -8 -13 -17 -22 -21 -13 -5 -13 -2 3 15 21 24 26 25 19 6z m70 -2 c3 -8 2 -12 -4 -9 -6 3 -10 10 -10 16 0 14 7 11 14 -7z m470 -8 c-3 -8 -12 -17 -20 -20 -9 -3 -12 -11 -8 -17 4 -7 3 -9 -3 -6 -6 4 -35 -19 -65 -51 -30 -31 -63 -63 -74 -71 -10 -8 24 29 76 82 52 53 96 97 97 97 1 0 0 -6 -3 -14z m1046 0 c0 -2 -8 -10 -17 -17 -16 -13 -17 -12 -4 4 13 16 21 21 21 13z m-1440 -26 c0 -5 -4 -10 -10 -10 -5 0 -10 5 -10 10 0 6 5 10 10 10 6 0 10 -4 10 -10z m-204 -28 c-18 -16 -18 -16 -6 6 6 13 14 21 18 18 3 -4 -2 -14 -12 -24z m1654 24 c0 -2 -8 -10 -17 -17 -16 -13 -17 -12 -4 4 13 16 21 21 21 13z m-555 -16 c-3 -5 -11 -10 -16 -10 -6 0 -7 5 -4 10 3 6 11 10 16 10 6 0 7 -4 4 -10z m495 -5 c-7 -8 -17 -15 -23 -15 -6 0 -2 7 9 15 25 19 30 19 14 0z m-30 -30 c0 -2 -10 -10 -22 -16 -21 -11 -22 -11 -9 4 13 16 31 23 31 12z m-555 -15 c-3 -5 -12 -10 -18 -10 -7 0 -6 4 3 10 19 12 23 12 15 0z m18 -15 c-3 -9 -8 -14 -10 -11 -3 3 -2 9 2 15 9 16 15 13 8 -4z m-679 -10 c3 -8 12 -15 20 -15 9 0 20 -9 26 -19 14 -26 13 -31 -4 -25 -8 3 -12 12 -9 20 3 10 0 12 -10 8 -8 -3 -18 0 -22 5 -3 6 -10 9 -15 6 -4 -3 -10 4 -13 15 -6 24 18 28 27 5z m-39 -4 c3 -5 1 -12 -5 -16 -5 -3 -10 1 -10 9 0 18 6 21 15 7z m663 -5 c-7 -8 -15 -12 -17 -11 -5 6 10 25 20 25 5 0 4 -6 -3 -14z m437 4 c-3 -5 -10 -10 -16 -10 -5 0 -9 5 -9 10 0 6 7 10 16 10 8 0 12 -4 9 -10z m-1064 -43 c-1 -12 -15 -9 -19 4 -3 6 1 10 8 8 6 -3 11 -8 11 -12z m569 -17 c-12 -16 -24 -30 -26 -30 -7 0 5 20 24 43 24 27 25 20 2 -13z m33 -8 c-10 -10 -20 -17 -22 -16 -6 5 20 34 30 34 5 0 1 -8 -8 -18z m551 -8 c4 -11 2 -15 -8 -11 -7 3 -18 1 -24 -5 -8 -8 -9 -5 -5 11 6 25 28 28 37 5z m-1654 2 c0 -2 -8 -10 -17 -17 -16 -13 -17 -12 -4 4 13 16 21 21 21 13z m550 -5 c0 -5 -7 -11 -15 -15 -9 -3 -15 0 -15 9 0 8 7 15 15 15 8 0 15 -4 15 -9z m-150 -104 c-41 -40 -73 -69 -70 -65 12 19 135 143 140 140 2 -1 -29 -35 -70 -75z m1160 79 c0 -2 -8 -10 -17 -17 -16 -13 -17 -12 -4 4 13 16 21 21 21 13z m-577 -41 c-3 -9 -8 -14 -10 -11 -3 3 -2 9 2 15 9 16 15 13 8 -4z m-509 -8 c-3 -8 -19 -24 -37 -37 l-32 -23 34 37 c38 40 43 43 35 23z m1076 -10 c0 -2 -10 -12 -22 -23 l-23 -19 19 23 c18 21 26 27 26 19z m-85 -47 c-16 -16 -30 -28 -33 -25 -4 4 47 55 56 55 3 0 -7 -13 -23 -30z m-535 -30 c-18 -16 -35 -30 -39 -30 -3 0 10 15 29 34 19 18 37 32 39 30 2 -2 -11 -17 -29 -34z m-29 7 c-10 -9 -11 -8 -5 6 3 10 9 15 12 12 3 -3 0 -11 -7 -18z m-539 -30 c-12 -13 -19 -27 -15 -32 5 -4 2 -5 -4 -1 -7 4 -13 4 -13 -1 0 -4 -13 -17 -28 -27 -15 -10 -5 4 23 33 27 28 51 51 54 51 2 0 -5 -10 -17 -23z m1108 20 c0 -2 -10 -12 -22 -23 l-23 -19 19 23 c18 21 26 27 26 19z m-80 -41 c0 -2 -8 -10 -17 -17 -16 -13 -17 -12 -4 4 13 16 21 21 21 13z m-574 -48 c-21 -14 -26 -8 -14 18 11 23 13 24 19 7 3 -10 1 -21 -5 -25z m-36 6 c-14 -35 -13 -44 4 -38 8 3 16 -3 19 -16 3 -12 10 -19 16 -15 6 3 11 -1 11 -9 0 -21 -4 -20 -36 9 -14 13 -30 22 -35 20 -8 -6 4 46 16 65 12 19 15 10 5 -16z m570 3 c0 -2 -10 -12 -22 -23 l-23 -19 19 23 c18 21 26 27 26 19z m-492 -32 c1 -14 -3 -25 -8 -25 -5 0 -7 7 -4 15 4 10 0 15 -12 16 -18 0 -17 1 1 9 11 5 20 9 20 9 0 1 2 -10 3 -24z m-610 -25 c-16 -16 -32 -30 -36 -30 -3 0 7 14 23 30 16 17 32 30 36 30 4 0 -6 -13 -23 -30z m1112 20 c0 -5 -5 -10 -11 -10 -5 0 -7 5 -4 10 3 6 8 10 11 10 2 0 4 -4 4 -10z m-448 -34 c11 -15 10 -26 -2 -26 -5 0 -10 7 -10 16 0 13 -3 14 -15 4 -8 -7 -13 -16 -10 -19 2 -4 -2 -8 -10 -8 -17 0 -28 24 -15 32 6 4 14 3 20 0 6 -3 7 1 4 10 -5 12 -2 14 12 8 11 -3 22 -11 26 -17z m-199 -21 c-3 -9 -8 -14 -10 -11 -3 3 -2 9 2 15 9 16 15 13 8 -4z m30 -13 c-10 -10 -20 -17 -22 -16 -6 5 20 34 30 34 5 0 1 -8 -8 -18z m161 -23 c-3 -5 -10 -7 -15 -3 -5 3 -7 10 -3 15 3 5 10 7 15 3 5 -3 7 -10 3 -15z m366 -3 c0 -2 -7 -7 -16 -10 -8 -3 -12 -2 -9 4 6 10 25 14 25 6z m-580 -30 c0 -2 -8 -10 -17 -17 -16 -13 -17 -12 -4 4 13 16 21 21 21 13z m-81 -41 c-13 -13 -28 -25 -33 -25 -5 0 3 11 18 25 35 32 45 32 15 0z m541 -5 c0 -5 -5 -10 -11 -10 -5 0 -7 5 -4 10 3 6 8 10 11 10 2 0 4 -4 4 -10z m-510 -4 c0 -2 -7 -7 -16 -10 -8 -3 -12 -2 -9 4 6 10 25 14 25 6z m370 -16 c0 -5 -4 -10 -10 -10 -5 0 -10 5 -10 10 0 6 5 10 10 10 6 0 10 -4 10 -10z m90 -35 c0 -8 -7 -15 -16 -15 -14 0 -14 3 -4 15 7 8 14 15 16 15 2 0 4 -7 4 -15z"/> <path d="M2055 2081 c-3 -5 -1 -12 5 -16 5 -3 10 0 10 7 0 10 3 9 10 -2 5 -8 12 -11 15 -8 10 10 -4 28 -20 28 -8 0 -16 -4 -20 -9z"/> <path d="M2037 2043 c6 -15 34 -14 40 2 1 6 -8 11 -21 11 -18 1 -23 -2 -19 -13z"/> <path d="M2097 2023 c-11 -11 -8 -43 4 -43 7 0 18 -8 25 -17 13 -17 13 -17 14 1 0 12 5 16 16 12 9 -3 14 -1 12 5 -2 6 -8 10 -13 9 -5 -1 -12 8 -17 19 -7 21 -28 28 -41 14z m19 -30 c-10 -10 -19 5 -10 18 6 11 8 11 12 0 2 -7 1 -15 -2 -18z"/> <path d="M1990 1830 l0 -180 25 0 25 0 0 180 0 180 -25 0 -25 0 0 -180z"/> <path d="M1820 1730 c-12 -8 -12 -10 3 -16 19 -7 67 2 67 14 0 11 -53 12 -70 2z"/> <path d="M1957 1723 c-4 -3 -7 -11 -7 -17 0 -6 5 -5 12 2 6 6 9 14 7 17 -3 3 -9 2 -12 -2z"/> <path d="M1686 1702 c-4 -12 -23 -35 -42 -50 l-35 -29 18 -34 c38 -67 65 -109 71 -109 11 0 108 104 115 122 5 13 0 19 -19 24 -13 3 -42 27 -63 52 -36 41 -39 43 -45 24z"/> <path d="M1740 1505 c-24 -24 -41 -48 -37 -51 4 -4 8 -5 10 -3 1 2 22 26 47 52 56 60 39 62 -20 2z"/> <path d="M2020 990 c-8 -5 -19 -6 -25 -3 -5 2 7 -11 28 -31 20 -20 37 -42 37 -49 0 -6 11 1 24 17 21 28 22 31 7 47 -21 22 -53 31 -71 19z m33 -22 c8 -28 6 -29 -17 -13 -10 8 -15 18 -11 24 10 17 22 13 28 -11z m31 -20 c-4 -6 -10 -5 -15 3 -14 22 -10 33 6 19 8 -7 12 -17 9 -22z"/> <path d="M995 2040 c-3 -5 -1 -10 4 -10 6 0 11 5 11 10 0 6 -2 10 -4 10 -3 0 -8 -4 -11 -10z"/> <path d="M1524 1919 c-25 -9 -44 -56 -34 -84 4 -11 3 -28 -2 -37 -6 -12 -5 -18 2 -18 6 0 8 -4 5 -10 -3 -5 -1 -19 5 -29 12 -23 34 -19 63 11 10 10 22 18 26 18 13 0 20 73 9 87 -5 7 -7 17 -3 23 14 23 -7 29 -28 7 -12 -13 -16 -16 -9 -7 25 33 6 54 -34 39z m-1 -84 c-3 -9 -8 -14 -10 -11 -3 3 -2 9 2 15 9 16 15 13 8 -4z"/> <path d="M2450 1632 c0 -12 19 -26 26 -19 2 2 -2 10 -11 17 -9 8 -15 8 -15 2z"/> <path d="M955 953 c6 -27 6 -27 -14 -9 -12 11 -21 14 -21 9 0 -16 28 -36 39 -28 7 3 8 0 5 -9 -9 -23 5 -19 27 7 19 23 25 42 10 33 -5 -3 -11 1 -15 9 -3 8 -13 15 -22 15 -13 0 -15 -6 -9 -27z m24 3 c7 -8 8 -17 3 -20 -6 -3 -12 3 -15 14 -6 24 -4 25 12 6z"/> </g> </svg> 