<?xml version="1.0" standalone="no"?>
<!DOCTYPE svg PUBLIC "-//W3C//DTD SVG 20010904//EN"
 "http://www.w3.org/TR/2001/REC-SVG-20010904/DTD/svg10.dtd">
<svg version="1.0" xmlns="http://www.w3.org/2000/svg"
 width="300.000000pt" height="303.000000pt" viewBox="0 0 300.000000 303.000000"
 preserveAspectRatio="xMidYMid meet">
<metadata>
Created by potrace 1.10, written by Peter Selinger 2001-2011
</metadata>
<g transform="translate(0.000000,303.000000) scale(0.100000,-0.100000)"
fill="#000000" stroke="none">
<path d="M1430 2827 c-3 -3 -32 -7 -65 -8 -174 -7 -416 -96 -605 -222 -102
-68 -275 -244 -343 -348 -200 -306 -266 -658 -191 -1009 82 -378 347 -713 699
-886 304 -149 637 -174 970 -73 123 38 301 134 410 222 244 198 392 439 466
759 33 143 31 383 -4 535 -29 128 -90 287 -144 377 -194 325 -495 545 -858
625 -85 19 -325 39 -335 28z m-64 -43 c-5 -13 -1 -15 16 -11 92 22 268 13 395
-20 32 -8 69 -15 83 -16 14 -1 27 -5 30 -8 3 -4 42 -21 87 -38 44 -18 120 -56
168 -86 48 -30 89 -55 90 -55 5 0 82 -68 153 -134 34 -33 75 -78 90 -101 15
-23 33 -40 40 -37 7 2 10 -2 6 -11 -3 -8 6 -27 20 -43 33 -41 111 -190 127
-244 7 -25 19 -50 27 -57 8 -6 11 -16 8 -21 -3 -5 5 -52 18 -103 32 -126 43
-289 23 -346 -14 -40 -13 -43 4 -48 11 -4 16 -11 13 -17 -4 -6 -10 -5 -15 3
-8 12 -11 11 -19 -1 -13 -20 -13 -33 2 -24 20 12 1 -113 -32 -216 -110 -339
-330 -600 -635 -754 -146 -73 -380 -139 -429 -120 -9 3 -16 1 -16 -5 0 -6 -4
-11 -8 -11 -14 0 -52 36 -52 49 0 6 -6 11 -14 11 -19 0 -25 20 -14 45 8 19 8
19 -5 3 -15 -19 -32 -25 -22 -8 3 5 1 10 -6 10 -7 0 -22 8 -33 17 -12 10 5
-10 37 -43 31 -33 57 -65 57 -72 0 -29 -309 -3 -399 34 -18 8 -38 11 -43 8 -6
-4 -13 -3 -17 2 -3 5 -30 18 -60 28 -92 32 -236 113 -254 143 -5 9 -16 11 -29
7 -17 -5 -20 -3 -15 10 4 10 1 16 -9 16 -20 0 -234 213 -234 234 0 9 -7 16
-15 16 -8 0 -15 5 -15 11 0 6 -14 31 -32 57 -44 64 -119 218 -125 258 -3 18
-9 31 -14 28 -5 -3 -9 4 -9 15 0 12 -9 53 -20 93 -27 101 -42 279 -28 342 8
36 7 50 -2 56 -9 5 -8 16 3 43 9 19 13 37 11 39 -8 8 18 122 46 208 26 77 80
194 128 276 33 57 125 168 200 241 128 125 311 234 482 289 93 30 184 48 208
42 12 -3 23 2 31 13 14 23 25 25 17 3z"/>
<path d="M1476 2614 c-9 -23 -7 -31 3 -15 8 13 12 13 27 0 16 -13 17 -12 11 4
-4 10 -7 21 -7 23 0 12 -29 2 -34 -12z"/>
<path d="M1570 2592 c0 -7 7 -15 16 -19 8 -3 13 -12 10 -20 -3 -8 -2 -11 3 -8
5 3 12 1 16 -5 8 -13 25 -13 25 0 0 6 -5 10 -10 10 -6 0 -22 12 -35 28 -13 15
-25 21 -25 14z"/>
<path d="M1500 2572 c0 -4 25 -32 55 -62 30 -30 55 -49 55 -43 0 7 -9 17 -21
23 -12 7 -18 18 -15 26 4 9 2 12 -5 8 -11 -7 -49 28 -49 46 0 5 -4 10 -10 10
-5 0 -10 -4 -10 -8z"/>
<path d="M1218 2051 l-32 -29 1 -184 c1 -102 -1 -195 -4 -207 -7 -27 -32 -27
-84 -1 -45 24 -57 20 -121 -38 -58 -52 -64 -76 -33 -123 25 -39 117 -95 135
-84 6 4 10 1 10 -4 0 -7 24 -11 60 -11 33 0 60 -3 60 -8 0 -4 -52 -56 -116
-116 -108 -101 -152 -151 -143 -161 5 -4 137 109 411 351 114 101 209 184 211
184 2 0 35 -52 73 -115 38 -63 71 -114 74 -114 3 0 30 42 60 94 83 143 71 134
173 136 l89 2 1 -307 2 -306 -87 0 -88 0 5 177 c3 102 2 173 -4 168 -16 -18
-141 -218 -141 -227 0 -18 -19 -6 -38 25 -10 17 -45 72 -76 121 l-56 89 0
-176 0 -177 -86 0 -85 0 3 195 c2 107 1 195 -1 195 -2 0 -24 -17 -50 -38 -25
-21 -104 -82 -175 -136 -71 -54 -142 -110 -157 -124 -49 -43 -21 -43 43 1 93
64 97 67 187 134 46 35 90 63 97 63 9 0 13 -29 16 -102 2 -57 1 -107 -3 -111
-12 -15 8 -77 32 -97 19 -15 39 -19 96 -20 61 0 76 3 99 24 26 22 28 27 26
110 0 47 2 86 6 86 4 0 27 -23 52 -50 55 -62 74 -60 126 13 36 50 37 50 46 27
9 -25 6 -95 -5 -107 -12 -12 -7 -22 8 -17 18 7 20 -7 4 -23 -9 -9 -4 -18 17
-38 26 -23 36 -25 95 -23 49 3 70 0 80 -12 12 -13 14 -12 17 8 2 12 10 22 18
22 8 0 14 8 14 18 0 9 2 74 4 145 2 71 -1 127 -6 127 -5 0 -5 7 0 18 5 9 8 40
6 67 -7 101 -6 434 2 446 5 9 2 10 -9 6 -15 -6 -16 -4 -4 21 8 17 11 46 7 80
-3 28 -2 52 1 52 4 0 24 -16 43 -35 40 -38 48 -43 40 -20 -4 8 -10 13 -14 10
-5 -3 -14 8 -22 25 -7 16 -17 30 -21 30 -12 0 -37 27 -37 39 0 6 -7 11 -15 11
-7 0 -18 8 -24 17 -8 16 -13 14 -45 -19 -29 -30 -36 -45 -36 -78 0 -45 -19
-54 -43 -19 -15 20 -16 20 -43 3 l-27 -18 29 -12 c44 -18 66 -48 71 -99 l6
-45 -87 0 c-96 0 -107 -10 -61 -55 28 -29 56 -31 96 -8 23 14 31 15 41 5 11
-11 8 -17 -12 -32 -36 -27 -83 -33 -123 -16 -49 20 -67 51 -67 115 l0 54 -24
-22 c-13 -12 -27 -36 -30 -53 -9 -43 -64 -95 -112 -104 -30 -5 -65 -30 -157
-110 -132 -116 -161 -129 -269 -122 -69 5 -133 34 -172 77 -18 20 -18 21 40
76 56 53 59 54 74 36 35 -44 95 -54 126 -20 17 19 19 41 21 237 l2 215 85 1
84 1 -1 -222 c-1 -123 -1 -223 1 -223 2 0 22 15 46 33 l42 32 -28 23 c-73 61
-60 255 21 296 44 23 113 21 145 -5 35 -28 47 -53 55 -113 l6 -50 52 45 c29
24 69 57 88 72 33 28 45 47 27 47 -5 0 -34 -16 -66 -35 -32 -19 -62 -35 -67
-35 -5 0 -11 11 -15 25 -3 14 -15 30 -25 36 -11 5 -17 14 -14 20 8 12 -79 49
-118 49 -17 0 -46 -5 -64 -12 -31 -11 -35 -10 -61 20 -25 29 -33 32 -100 37
-68 4 -74 3 -104 -24z m822 -221 l0 -180 -25 0 -25 0 0 180 0 180 25 0 25 0 0
-180z m-303 -180 c18 -16 38 -30 43 -30 13 0 13 -47 0 -55 -5 -3 -19 -20 -32
-38 -15 -22 -17 -28 -5 -18 31 25 28 5 -5 -25 -17 -16 -29 -22 -26 -13 3 8 -4
24 -16 36 -12 11 -32 42 -45 68 l-23 47 28 28 c16 15 33 28 38 29 4 1 24 -12
43 -29z"/>
<path d="M2117 2053 c-12 -11 -8 -23 8 -23 8 0 15 -6 15 -13 0 -7 9 -18 20
-25 11 -7 20 -9 20 -5 -1 15 -57 73 -63 66z"/>
<path d="M1006 2035 c-22 -16 -20 -24 4 -18 12 3 22 -1 26 -11 3 -9 12 -16 19
-16 7 0 15 -5 17 -12 3 -7 6 -8 9 -3 3 6 -10 24 -27 41 -26 25 -35 28 -48 19z"/>
<path d="M950 2012 c0 -14 79 -86 86 -79 4 4 2 7 -4 7 -7 0 -12 7 -12 15 0 8
-7 15 -15 15 -8 0 -15 5 -15 11 0 11 -24 39 -34 39 -3 0 -6 -4 -6 -8z"/>
<path d="M1493 1935 c-61 -43 -41 -245 24 -245 22 0 112 73 119 98 11 39 -6
113 -31 138 -28 28 -79 32 -112 9z m95 -98 c1 -46 -3 -55 -30 -76 l-31 -25
-17 22 c-21 25 -17 92 6 129 12 19 18 21 43 12 26 -9 28 -14 29 -62z"/>
<path d="M1791 1844 c-12 -15 -21 -31 -21 -35 0 -5 29 -9 65 -9 36 0 65 3 65
6 0 11 -23 49 -34 56 -22 15 -55 7 -75 -18z"/>
<path d="M2580 1572 c0 -6 11 -14 25 -18 13 -3 29 -12 36 -20 6 -8 16 -14 22
-14 5 0 2 9 -8 20 -10 11 -26 20 -35 20 -9 0 -21 5 -28 12 -9 9 -12 9 -12 0z"/>
<path d="M460 1486 c0 -15 62 -66 72 -60 7 4 3 11 -8 17 -11 6 -21 13 -24 16
-12 14 -40 33 -40 27z"/>
<path d="M2580 1486 c0 -6 88 -96 95 -96 12 0 3 12 -41 55 -42 42 -54 51 -54
41z"/>
<path d="M932 974 c-12 -8 -22 -21 -21 -27 0 -8 2 -8 6 1 4 10 8 10 20 0 12
-10 14 -9 11 8 -2 13 3 20 20 22 12 2 22 -1 22 -7 0 -6 5 -11 11 -11 8 0 8 5
-1 15 -16 19 -40 19 -68 -1z"/>
<path d="M2090 970 c0 -6 5 -10 10 -10 6 0 10 -7 10 -15 0 -8 5 -15 10 -15 6
0 10 -9 10 -21 0 -12 4 -18 11 -13 6 3 15 0 20 -7 4 -7 11 -11 14 -8 3 4 -8
21 -25 39 -16 18 -30 36 -30 40 0 4 -7 10 -15 14 -8 3 -15 1 -15 -4z"/>
<path d="M2000 964 c0 -5 18 -28 40 -49 22 -21 40 -34 40 -27 0 7 -4 12 -10
12 -5 0 -10 7 -10 15 0 8 -6 15 -14 15 -8 0 -22 10 -30 22 -9 12 -16 18 -16
12z"/>
<path d="M972 874 c28 -30 53 -54 55 -54 10 0 -19 39 -41 55 -14 11 -26 25
-26 31 0 7 -9 14 -20 17 -14 4 -3 -12 32 -49z"/>
<path d="M1550 390 c0 -6 7 -13 15 -16 8 -4 15 -11 15 -18 0 -6 9 -17 20 -23
15 -10 21 -10 26 0 4 6 4 9 0 6 -8 -8 -64 43 -58 54 2 4 -2 7 -7 7 -6 0 -11
-5 -11 -10z"/>
</g>
</svg>
