<?xml version="1.0" standalone="no"?>
<!DOCTYPE svg PUBLIC "-//W3C//DTD SVG 20010904//EN"
 "http://www.w3.org/TR/2001/REC-SVG-20010904/DTD/svg10.dtd">
<svg version="1.0" xmlns="http://www.w3.org/2000/svg"
 width="1026.000000pt" height="1026.000000pt" viewBox="0 0 1026.000000 1026.000000"
 preserveAspectRatio="xMidYMid meet">
<metadata>
Created by potrace 1.16, written by Peter Selinger 2001-2019
</metadata>
<g transform="translate(0.000000,1026.000000) scale(0.100000,-0.100000)"
fill="#000000" stroke="none">
<path d="M549 9960 c-90 -15 -178 -79 -219 -159 -36 -72 -40 -146 -40 -861 0
-712 4 -789 40 -859 24 -47 84 -103 140 -133 l45 -23 805 0 805 0 45 23 c66
34 109 79 141 147 l29 60 0 782 c0 757 -1 784 -20 836 -36 95 -125 165 -239
187 -63 12 -1461 12 -1532 0z m1376 -309 c22 -10 52 -31 67 -47 59 -63 58 -52
58 -666 0 -629 1 -611 -71 -672 -68 -57 -52 -56 -659 -56 -612 0 -601 -1 -663
58 -16 15 -39 45 -50 67 -22 40 -22 45 -22 605 0 564 0 565 22 606 25 47 94
111 127 117 11 2 275 5 586 5 530 1 567 0 605 -17z"/>
<path d="M950 9362 c-69 -37 -71 -45 -68 -434 l3 -348 38 -37 37 -38 354 0
c484 0 446 -37 446 432 0 368 -3 384 -69 421 -38 21 -49 22 -373 22 -304 0
-336 -2 -368 -18z"/>
<path d="M3603 9963 c-12 -2 -36 -20 -53 -39 -27 -32 -30 -41 -30 -104 0 -66
2 -73 33 -106 28 -31 42 -37 84 -41 65 -7 116 10 148 48 21 26 25 40 25 99 0
59 -4 73 -26 99 -35 42 -104 59 -181 44z"/>
<path d="M5654 9959 c-16 -5 -41 -20 -55 -35 -21 -23 -24 -35 -24 -104 0 -64
4 -82 20 -100 39 -44 72 -50 272 -50 159 0 193 3 223 18 50 24 72 73 67 145
-4 68 -28 107 -78 124 -40 14 -378 16 -425 2z"/>
<path d="M6533 9959 c-17 -5 -43 -23 -57 -40 -22 -26 -26 -40 -26 -98 0 -55 4
-74 22 -96 29 -37 76 -55 143 -55 46 0 60 -4 87 -29 30 -27 33 -35 39 -111 5
-74 8 -84 37 -113 28 -28 39 -32 99 -35 55 -2 74 1 101 18 57 36 64 67 60 291
-4 281 -2 278 -293 278 -99 -1 -194 -5 -212 -10z"/>
<path d="M7414 9959 c-16 -5 -41 -20 -55 -35 -24 -25 -24 -29 -29 -250 l-5
-224 -32 -31 c-28 -29 -40 -33 -107 -38 -117 -10 -154 -50 -155 -169 -1 -48
-5 -58 -35 -88 -32 -32 -38 -34 -100 -34 -39 0 -79 6 -95 15 -37 19 -61 71
-61 133 0 28 -4 62 -10 76 -15 41 -66 66 -133 66 -102 0 -147 -43 -147 -140 0
-109 -42 -150 -154 -150 -58 0 -69 3 -98 29 -30 26 -33 35 -39 105 -6 82 -25
120 -70 143 -17 9 -85 13 -222 13 -219 0 -249 6 -280 59 -11 18 -17 50 -17 86
0 108 -38 145 -148 145 -71 0 -75 -1 -108 -34 l-34 -34 0 -221 0 -221 29 -32
29 -33 224 -5 c169 -4 228 -8 244 -19 38 -25 54 -65 54 -135 0 -61 -3 -69 -33
-102 -31 -34 -37 -36 -115 -43 -71 -6 -86 -10 -109 -34 -23 -22 -28 -37 -31
-94 -4 -51 0 -74 13 -99 31 -58 58 -64 290 -64 l207 0 34 -34 34 -34 0 -225 0
-225 -30 -30 c-34 -34 -88 -47 -150 -37 -76 13 -110 63 -110 163 0 92 -57 138
-163 130 -54 -4 -63 -8 -93 -41 -31 -34 -34 -42 -34 -100 0 -110 -49 -155
-168 -156 -48 -1 -58 -5 -88 -35 -33 -33 -34 -37 -34 -108 0 -110 39 -148 150
-148 97 0 140 -45 140 -145 0 -100 -43 -145 -140 -145 -111 0 -150 -38 -150
-146 0 -63 3 -76 26 -103 14 -17 42 -35 62 -41 55 -15 957 -12 1002 3 19 7 44
27 57 46 l23 34 0 504 0 503 33 37 c33 35 37 37 116 42 78 6 85 9 112 39 l29
32 0 205 c0 224 6 257 53 288 19 12 47 17 98 17 67 0 73 -2 105 -34 30 -30 34
-40 35 -87 0 -76 18 -119 59 -147 30 -20 44 -23 103 -20 60 3 71 7 99 35 28
28 32 39 38 114 7 76 10 85 39 111 26 24 40 28 86 28 67 0 114 18 143 55 22
28 22 30 22 535 0 505 0 507 -22 535 -38 49 -109 66 -184 44z"/>
<path d="M8171 9959 c-105 -21 -197 -95 -231 -186 -19 -52 -20 -79 -20 -836
l0 -782 29 -60 c32 -68 75 -113 141 -147 l45 -23 805 0 805 0 45 23 c67 35
127 99 153 162 22 55 22 55 25 785 3 758 0 831 -38 906 -29 56 -85 108 -149
138 l-56 26 -755 2 c-415 0 -775 -3 -799 -8z m1347 -295 c41 -8 107 -66 135
-118 22 -41 22 -42 22 -606 0 -560 0 -565 -22 -605 -11 -22 -34 -52 -50 -67
-62 -59 -51 -58 -663 -58 -607 0 -591 -1 -659 56 -72 61 -71 43 -71 672 0 614
-1 603 58 666 15 16 45 37 67 47 37 17 76 19 596 19 306 0 570 -3 587 -6z"/>
<path d="M8570 9360 c-65 -34 -65 -35 -65 -421 0 -479 -40 -441 452 -437 l343
3 37 38 38 37 3 348 c3 389 1 397 -68 434 -32 16 -64 18 -370 18 -307 -1 -338
-2 -370 -20z"/>
<path d="M3266 9639 c-59 -51 -62 -160 -6 -222 27 -31 31 -32 109 -32 77 0 82
1 112 32 26 26 33 41 37 86 10 118 -34 167 -150 167 -61 0 -71 -3 -102 -31z"/>
<path d="M4158 9652 c-54 -33 -59 -62 -56 -288 l3 -206 37 -34 38 -34 366 0
366 0 34 34 34 34 0 222 0 222 -34 34 -34 34 -364 0 c-324 -1 -366 -2 -390
-18z"/>
<path d="M6201 9644 c-37 -31 -55 -90 -46 -148 14 -87 61 -120 162 -114 55 3
68 8 95 36 27 26 32 40 36 92 8 115 -32 160 -146 160 -61 0 -75 -3 -101 -26z"/>
<path d="M2698 9364 c-53 -28 -58 -53 -58 -282 0 -200 1 -211 22 -237 29 -37
76 -55 143 -55 46 0 60 -4 86 -28 29 -26 32 -35 39 -111 6 -75 10 -86 38 -114
28 -28 39 -32 99 -35 59 -3 73 0 103 20 56 38 59 57 59 418 0 360 -3 380 -58
417 -33 22 -42 23 -240 23 -163 -1 -212 -4 -233 -16z"/>
<path d="M3572 9360 c-41 -25 -52 -54 -52 -137 0 -61 2 -67 34 -99 33 -33 37
-34 108 -34 110 0 148 37 148 145 0 103 -43 145 -147 145 -40 0 -68 -6 -91
-20z"/>
<path d="M3858 8770 c-37 -29 -51 -71 -46 -140 4 -52 9 -66 35 -92 28 -27 40
-32 105 -37 120 -11 143 -34 151 -150 4 -71 7 -77 41 -108 33 -30 41 -33 102
-33 44 0 75 6 95 17 52 31 59 61 59 272 0 299 8 291 -303 291 -198 0 -216 -2
-239 -20z"/>
<path d="M4738 8770 c-37 -29 -51 -71 -46 -140 4 -52 9 -66 36 -92 26 -27 40
-32 92 -36 69 -5 111 9 140 46 16 19 20 40 20 99 0 72 -1 76 -34 109 -33 33
-37 34 -109 34 -59 0 -80 -4 -99 -20z"/>
<path d="M3291 8487 c-13 -6 -34 -25 -45 -40 -20 -27 -21 -41 -21 -236 0 -224
4 -244 54 -278 37 -25 147 -25 185 0 51 34 57 68 54 294 l-3 205 -37 34 c-35
31 -43 34 -100 34 -35 0 -74 -6 -87 -13z"/>
<path d="M5022 8466 l-37 -34 -3 -205 c-3 -163 0 -212 12 -240 22 -53 58 -72
136 -72 106 0 150 45 150 155 0 97 47 140 150 140 97 0 140 45 140 145 0 31
-7 69 -15 85 -28 55 -52 60 -285 60 l-210 0 -38 -34z"/>
<path d="M7388 8484 c-53 -28 -58 -53 -58 -282 0 -200 1 -211 22 -237 12 -15
36 -34 54 -41 68 -28 152 -10 192 41 21 26 22 37 22 237 0 230 -5 255 -60 283
-37 19 -136 19 -172 -1z"/>
<path d="M2704 8194 c-45 -22 -64 -62 -64 -137 0 -74 21 -110 76 -133 68 -28
152 -10 192 41 17 22 22 41 22 92 0 76 -19 115 -66 138 -41 19 -120 19 -160
-1z"/>
<path d="M3869 8187 c-56 -37 -59 -51 -59 -280 l0 -207 -34 -38 -34 -37 -211
-3 c-277 -4 -293 4 -304 145 -6 79 -17 103 -58 127 -37 22 -156 22 -187 0 -47
-33 -52 -59 -52 -274 0 -222 -5 -247 -60 -275 -16 -8 -52 -15 -80 -15 -64 0
-116 -24 -135 -61 -9 -16 -15 -56 -15 -93 0 -55 4 -69 26 -95 14 -17 42 -35
62 -41 24 -6 400 -10 1082 -10 682 0 1058 4 1082 10 20 6 48 24 62 41 23 27
26 40 26 103 0 108 -39 146 -150 146 -97 0 -140 45 -140 145 0 100 43 145 140
145 109 0 150 42 150 156 0 62 -2 68 -34 100 -30 30 -40 34 -88 35 -119 1
-168 46 -168 156 0 58 -3 66 -34 100 -30 33 -39 37 -93 41 -44 3 -70 -1 -97
-13 -61 -29 -66 -49 -67 -267 0 -218 -7 -251 -58 -285 -59 -40 -170 -28 -212
23 -11 13 -15 67 -19 238 -4 193 -7 226 -23 250 -38 58 -155 76 -218 33z"/>
<path d="M6813 8195 c-18 -8 -42 -29 -53 -47 -18 -30 -20 -50 -20 -234 0 -193
1 -202 23 -235 31 -46 61 -59 135 -59 59 0 67 -3 98 -34 33 -33 34 -37 34
-111 0 -74 -1 -78 -34 -111 -32 -32 -38 -34 -99 -34 -71 0 -121 -24 -144 -70
-17 -33 -16 -113 1 -155 21 -49 56 -67 142 -73 67 -4 79 -8 105 -34 l29 -30 1
-496 c0 -533 2 -548 51 -585 33 -24 114 -33 160 -18 62 21 81 51 88 142 5 75
8 83 38 110 25 22 42 29 75 29 71 1 120 17 150 50 l27 30 0 210 c0 115 -4 220
-10 234 -15 40 -66 66 -128 66 -108 0 -152 45 -152 154 0 58 3 69 29 98 l29
33 224 5 c203 5 225 7 250 25 37 28 48 50 54 103 8 65 -13 121 -55 149 -33 22
-42 23 -238 23 -301 0 -293 -8 -293 292 0 183 -2 206 -20 235 -25 42 -42 50
-125 55 -39 3 -80 11 -92 19 -32 20 -51 66 -57 137 -2 34 -12 74 -21 88 -32
50 -133 69 -202 39z"/>
<path d="M1228 7602 c-42 -26 -61 -74 -56 -145 4 -54 8 -63 41 -93 33 -31 42
-34 97 -34 62 0 105 -15 131 -46 11 -13 15 -67 19 -238 4 -193 7 -226 23 -250
26 -40 79 -59 150 -54 48 4 63 9 89 35 28 28 32 40 38 114 7 76 10 85 39 111
25 22 41 28 79 28 70 0 118 17 146 51 22 26 26 40 26 95 0 37 -6 77 -15 93
-19 37 -71 61 -135 61 -95 0 -140 45 -140 140 0 29 -7 67 -16 86 -28 60 -48
64 -281 64 -178 0 -212 -3 -235 -18z"/>
<path d="M2108 7602 c-79 -48 -77 -208 1 -255 25 -15 59 -17 236 -17 177 0
211 2 236 17 79 47 79 209 0 256 -25 15 -59 17 -238 17 -178 0 -212 -3 -235
-18z"/>
<path d="M8845 7598 c-37 -29 -55 -76 -55 -144 0 -50 -3 -59 -34 -90 l-34 -34
-207 0 c-171 0 -213 -3 -241 -16 -44 -21 -64 -60 -64 -124 0 -63 -20 -113 -55
-136 -16 -11 -54 -19 -101 -22 -66 -4 -79 -8 -104 -34 -46 -45 -52 -145 -13
-206 20 -32 72 -52 134 -52 98 0 145 -55 137 -163 -4 -54 -8 -63 -41 -93 -34
-31 -42 -34 -100 -34 -112 0 -166 -62 -153 -174 7 -60 42 -101 98 -117 24 -6
162 -9 366 -7 293 3 331 5 355 21 42 28 59 62 64 135 7 80 14 97 56 122 29 18
52 20 230 20 219 0 249 -6 280 -59 24 -41 23 -136 -3 -178 -26 -43 -48 -53
-133 -60 -64 -6 -76 -10 -104 -39 -30 -29 -33 -38 -33 -90 0 -112 -51 -164
-163 -164 -51 0 -61 -4 -95 -34 l-37 -34 -5 -227 -5 -227 -33 -29 c-29 -26
-39 -29 -105 -29 -77 0 -106 12 -129 53 -9 15 -15 93 -18 246 l-5 223 -35 29
c-31 26 -41 29 -108 29 -71 0 -75 -1 -108 -34 -31 -31 -34 -39 -34 -95 0 -66
-14 -103 -50 -136 -20 -18 -40 -20 -246 -25 l-224 -5 -31 -32 c-26 -26 -33
-41 -37 -86 -5 -62 10 -116 38 -142 13 -12 46 -20 100 -26 82 -8 100 -15 132
-54 25 -28 25 -155 1 -192 -31 -47 -64 -53 -288 -53 l-205 0 -32 -29 c-29 -26
-33 -35 -36 -98 -5 -78 11 -123 51 -145 16 -10 117 -14 389 -18 l368 -5 32
-33 33 -32 5 -225 5 -224 29 -30 c54 -56 165 -54 223 4 30 30 33 38 33 97 0
76 24 122 75 144 71 29 165 11 195 -39 18 -29 20 -52 20 -230 0 -222 7 -253
62 -287 38 -23 128 -27 168 -7 46 23 70 73 70 144 0 61 2 67 34 99 l34 34 353
0 c317 0 358 2 389 18 68 33 70 46 70 425 0 373 -3 392 -61 422 -39 21 -144
19 -180 -2 -53 -32 -59 -60 -59 -288 l0 -207 -34 -34 c-32 -32 -38 -34 -99
-34 -36 0 -77 4 -91 10 -41 15 -66 66 -66 133 0 104 -42 147 -145 147 -106 0
-145 42 -145 156 0 62 2 68 34 100 l34 34 207 0 c279 0 295 8 308 155 10 107
49 143 160 144 91 2 137 51 137 146 0 57 -21 100 -63 125 -29 18 -51 20 -235
20 -174 0 -208 2 -233 17 -38 23 -59 69 -59 133 0 95 45 140 140 140 96 0 150
45 150 127 1 120 33 157 143 166 44 3 85 12 100 22 53 34 73 128 43 200 -21
50 -68 75 -143 75 -51 0 -66 4 -92 26 -63 52 -66 171 -6 231 30 30 38 33 97
33 76 0 122 24 144 75 29 69 10 168 -38 198 -12 8 -56 17 -95 20 -112 9 -141
38 -150 150 -3 39 -12 83 -20 95 -22 36 -78 55 -146 50 -49 -4 -63 -9 -90 -36
l-32 -32 -5 -225 -5 -225 -33 -32 -32 -33 -358 -3 c-273 -1 -363 1 -382 11
-85 43 -96 206 -18 261 18 13 58 16 223 17 128 0 212 4 234 12 52 18 73 55 80
139 4 40 13 84 20 96 17 32 69 52 131 52 97 0 140 45 140 145 0 31 -7 69 -15
85 -28 55 -53 60 -283 60 -200 0 -211 -1 -237 -22z"/>
<path d="M654 7316 c-62 -28 -64 -38 -64 -279 0 -203 1 -221 20 -247 26 -37
78 -53 147 -48 45 4 60 11 86 37 l32 31 0 225 0 225 -32 32 c-29 28 -40 32
-95 35 -39 2 -75 -2 -94 -11z"/>
<path d="M2102 7014 c-34 -23 -52 -67 -52 -126 0 -94 53 -148 145 -148 57 0
109 21 128 52 40 62 33 161 -14 208 -29 28 -35 30 -108 30 -53 0 -83 -5 -99
-16z"/>
<path d="M348 6722 c-59 -36 -58 -22 -58 -712 0 -695 -1 -683 61 -715 42 -22
445 -22 477 1 34 23 52 67 52 124 0 102 -48 150 -150 150 -53 0 -96 16 -121
46 -12 14 -15 107 -19 536 l-5 520 -37 34 c-35 32 -42 34 -105 34 -46 0 -77
-6 -95 -18z"/>
<path d="M938 6724 c-39 -20 -58 -64 -58 -129 0 -102 43 -145 145 -145 108 0
145 38 145 148 0 71 -1 75 -34 108 -32 32 -38 34 -102 34 -41 -1 -80 -7 -96
-16z"/>
<path d="M1812 6720 c-39 -24 -52 -54 -52 -122 0 -101 -46 -148 -147 -148 -64
0 -113 -23 -134 -62 -19 -36 -17 -139 4 -171 42 -64 21 -62 583 -67 434 -4
514 -7 529 -20 47 -39 60 -150 25 -208 -34 -55 -65 -62 -287 -62 -178 0 -201
-2 -229 -19 -40 -24 -58 -75 -52 -149 4 -48 10 -60 41 -89 33 -30 43 -33 97
-33 105 0 150 -38 150 -128 0 -64 19 -112 55 -140 22 -17 41 -22 92 -22 111 0
153 42 153 150 0 97 45 140 145 140 31 0 69 7 85 15 55 28 60 53 60 277 0 183
2 206 20 235 25 42 42 49 122 56 73 5 107 22 135 64 15 23 19 55 21 197 5 216
0 250 -43 293 -31 31 -38 33 -99 33 -114 0 -156 -41 -156 -150 0 -28 -7 -64
-15 -80 -30 -59 -39 -60 -430 -60 l-355 0 -37 33 c-35 33 -37 37 -42 117 -6
79 -8 84 -41 111 -30 25 -42 29 -100 29 -47 0 -74 -5 -98 -20z"/>
<path d="M5020 6524 c-197 -24 -331 -61 -485 -133 -125 -60 -191 -102 -304
-196 -258 -214 -426 -519 -476 -860 -77 -525 157 -1051 598 -1348 148 -99 300
-164 490 -209 126 -29 419 -31 547 -4 561 120 975 531 1097 1088 14 65 18 127
17 283 0 184 -2 209 -27 309 -78 313 -241 570 -484 766 -189 151 -421 255
-652 289 -83 13 -268 21 -321 15z m0 -1080 l0 -235 45 32 c43 31 56 49 35 49
-5 0 -22 19 -37 42 -24 36 -28 51 -28 117 0 113 45 177 131 187 78 10 143 -48
152 -135 2 -28 8 -51 13 -51 5 0 26 15 46 33 21 18 52 42 68 53 29 20 32 20
75 5 51 -18 80 -62 80 -118 l0 -33 -90 0 c-99 0 -107 -6 -69 -54 24 -31 81
-36 110 -10 19 17 39 11 39 -11 0 -20 -52 -45 -95 -45 -77 0 -131 61 -123 141
2 21 1 39 -1 39 -11 0 -51 -45 -51 -58 0 -55 -68 -122 -123 -122 -22 0 -58
-26 -158 -114 -147 -129 -173 -142 -293 -134 -81 5 -152 38 -182 83 -15 22
-13 25 36 72 29 26 56 50 61 51 5 2 23 -8 40 -22 19 -16 43 -26 62 -26 72 0
77 19 77 279 l0 221 90 0 90 0 0 -236z m680 15 l0 -190 -22 3 c-23 3 -23 5
-26 191 l-2 187 25 0 25 0 0 -191z m8 -541 l2 -328 -90 0 -90 0 0 188 0 187
-84 -129 -84 -129 -79 121 c-43 67 -81 122 -85 122 -5 0 -8 -81 -8 -180 l0
-180 -85 0 -85 0 0 205 c0 113 -3 205 -7 205 -5 0 -89 -61 -188 -136 -99 -75
-193 -145 -210 -156 -29 -20 -29 -20 -10 -1 19 19 47 45 355 318 80 70 166
148 192 172 27 24 52 42 56 39 5 -3 39 -55 77 -116 38 -61 72 -113 76 -115 4
-3 40 49 80 115 82 132 75 128 194 126 l70 -1 3 -327z"/>
<path d="M5140 5588 c-42 -22 -62 -73 -57 -148 4 -68 17 -99 49 -119 16 -10
28 -6 78 31 66 48 75 70 64 143 -12 80 -75 123 -134 93z"/>
<path d="M918 6121 c-30 -27 -33 -34 -36 -104 -4 -74 -4 -76 30 -113 34 -36
38 -38 116 -43 72 -6 85 -10 109 -34 24 -24 28 -37 34 -108 5 -73 8 -83 37
-112 l32 -32 213 -3 c185 -3 216 -1 244 14 41 21 63 68 63 134 0 95 -45 140
-140 140 -103 0 -150 43 -150 140 0 61 -19 111 -51 134 -20 14 -56 16 -246 16
l-223 0 -32 -29z"/>
<path d="M7672 6134 c-34 -23 -52 -67 -52 -126 0 -66 27 -114 75 -134 69 -29
168 -10 198 38 40 62 33 161 -14 208 -29 28 -35 30 -108 30 -53 0 -83 -5 -99
-16z"/>
<path d="M1818 5554 c-38 -20 -58 -63 -58 -124 0 -61 -20 -113 -52 -133 -12
-8 -56 -17 -95 -20 -75 -6 -103 -18 -131 -59 -14 -19 -18 -60 -22 -245 l-5
-223 -27 -26 c-22 -23 -38 -28 -108 -34 -73 -6 -85 -10 -113 -38 -59 -60 -45
-202 24 -237 42 -22 427 -21 470 1 38 19 59 68 59 134 0 97 45 140 145 140
100 0 145 43 145 140 0 103 43 150 140 150 62 0 113 20 135 53 22 35 29 114
13 161 -19 56 -53 77 -134 83 -38 3 -82 12 -97 20 -36 18 -57 68 -57 133 0 62
-20 105 -60 125 -37 19 -136 19 -172 -1z"/>
<path d="M7090 5548 c-55 -37 -62 -73 -58 -293 3 -169 5 -193 23 -219 52 -78
206 -74 255 6 19 31 20 46 18 245 l-3 213 -32 32 c-29 29 -40 33 -100 36 -59
3 -73 0 -103 -20z"/>
<path d="M3010 5267 c-51 -18 -80 -67 -80 -136 0 -97 53 -151 150 -151 96 0
143 48 144 146 1 66 -14 105 -50 129 -32 21 -122 28 -164 12z"/>
<path d="M349 4965 c-59 -32 -79 -152 -36 -216 37 -55 52 -59 270 -59 224 0
254 7 281 65 20 41 21 127 2 164 -30 58 -45 61 -278 61 -165 -1 -219 -4 -239
-15z"/>
<path d="M2125 4680 c-42 -17 -68 -58 -73 -114 -10 -117 34 -166 150 -166 57
0 71 4 97 25 37 32 55 85 47 142 -8 57 -20 80 -59 103 -34 21 -123 26 -162 10z"/>
<path d="M7090 4668 c-55 -37 -62 -73 -58 -293 5 -290 -20 -275 443 -275 368
0 384 2 422 58 27 40 25 151 -3 189 -34 45 -70 52 -289 52 -255 1 -263 6 -276
149 -5 65 -10 77 -37 105 -28 28 -39 32 -99 35 -59 3 -73 0 -103 -20z"/>
<path d="M954 4386 c-53 -24 -74 -61 -74 -130 0 -108 -51 -156 -166 -156 -50
0 -59 -3 -90 -34 -29 -29 -34 -41 -34 -82 0 -67 -15 -116 -45 -144 -20 -19
-40 -25 -105 -29 -73 -6 -83 -9 -112 -39 l-33 -32 0 -516 0 -516 37 -34 38
-34 210 0 c233 0 257 5 285 60 19 37 19 133 0 170 -21 40 -63 60 -130 60 -63
0 -104 17 -129 54 -14 22 -16 57 -16 238 0 192 2 216 19 244 48 79 215 68 258
-17 9 -17 13 -86 13 -227 0 -174 3 -208 17 -233 22 -37 69 -59 127 -59 96 0
146 45 146 132 0 66 18 115 49 138 29 20 40 20 688 20 593 0 661 -2 682 -16
32 -23 51 -73 51 -134 0 -93 48 -140 145 -140 98 0 145 47 145 147 0 61 22
113 57 131 10 5 50 12 89 14 113 8 149 45 149 152 0 43 -6 70 -18 90 -37 55
-43 56 -577 56 -543 0 -533 -1 -564 64 -9 19 -16 57 -16 84 0 68 -13 98 -52
122 -30 18 -51 20 -238 20 -185 0 -208 2 -237 20 -42 25 -50 42 -55 125 -3 39
-11 80 -18 92 -22 34 -64 53 -122 53 -104 0 -158 54 -158 158 0 58 -19 100
-53 121 -31 20 -127 24 -163 7z"/>
<path d="M1834 4386 c-55 -25 -74 -60 -74 -138 0 -66 2 -72 33 -103 61 -61
173 -60 226 1 28 32 31 41 31 104 0 65 -2 73 -33 106 -29 31 -39 36 -92 40
-39 3 -71 0 -91 -10z"/>
<path d="M2421 4387 c-53 -19 -73 -54 -79 -139 -3 -40 -11 -83 -19 -95 -21
-32 -75 -53 -138 -53 -99 0 -142 -54 -133 -167 4 -45 11 -60 37 -86 l31 -32
508 -3 508 -3 35 24 c54 36 61 72 57 294 -3 176 -5 194 -24 220 -36 49 -62 52
-419 52 -230 0 -340 -4 -364 -12z"/>
<path d="M7952 4066 l-37 -34 0 -360 c0 -387 1 -394 54 -428 14 -10 54 -19 95
-22 39 -3 82 -12 95 -21 32 -21 51 -69 51 -133 1 -62 15 -92 56 -119 29 -19
28 -19 -356 -19 -363 0 -383 1 -352 17 45 22 62 59 62 139 0 62 -2 68 -34 100
-31 31 -40 34 -90 34 -64 0 -112 17 -141 50 -15 16 -21 42 -26 101 -4 64 -10
84 -29 104 -31 33 -82 48 -142 43 -60 -6 -99 -33 -115 -79 -15 -44 -18 -657
-3 -711 6 -20 24 -48 41 -62 26 -22 40 -26 95 -26 78 0 115 17 137 62 16 31
17 10 17 -357 0 -367 -1 -388 -17 -357 -30 61 -35 62 -423 62 -385 0 -395 -1
-425 -60 -12 -23 -15 -70 -15 -232 0 -183 -2 -206 -20 -235 -25 -42 -46 -52
-122 -59 -85 -8 -116 -21 -136 -58 -23 -44 -21 -142 3 -180 33 -50 64 -56 290
-56 l205 0 32 -29 c30 -27 33 -34 39 -112 5 -79 7 -83 42 -116 l37 -33 355 0
c391 0 400 1 430 60 8 16 15 52 15 80 0 102 45 150 140 150 110 0 155 44 155
150 0 71 -13 99 -62 131 -28 19 -25 19 212 19 l240 0 -31 -19 c-51 -31 -64
-58 -64 -129 0 -112 50 -158 163 -150 54 4 63 8 93 41 32 34 34 42 34 105 0
75 -13 102 -64 133 l-31 19 110 0 c122 0 168 15 217 66 46 49 58 93 58 211 l0
108 19 -31 c38 -62 45 -64 269 -64 311 0 305 6 300 -307 l-3 -213 -32 -32
c-29 -29 -39 -32 -113 -37 -76 -6 -84 -9 -111 -39 -25 -27 -29 -41 -29 -87 0
-113 -45 -165 -144 -165 -110 0 -164 -59 -153 -166 9 -90 42 -118 151 -127 38
-4 80 -14 93 -23 33 -21 53 -72 53 -135 0 -98 55 -145 162 -137 50 4 64 9 90
35 28 28 32 40 37 107 7 87 29 124 82 143 22 8 105 12 227 12 286 1 282 -3
282 291 0 212 -6 242 -59 273 -17 10 -50 17 -80 17 -65 0 -114 20 -138 56 -16
26 -18 62 -23 397 l-5 369 -33 29 -32 29 -363 0 c-399 0 -388 2 -428 -64 -19
-31 -19 -29 -19 359 0 388 0 390 19 359 31 -51 58 -64 129 -64 108 0 152 45
152 154 0 36 6 66 16 82 33 49 57 54 274 54 267 0 281 -7 291 -143 5 -76 7
-82 42 -114 34 -31 41 -33 107 -33 66 0 73 2 108 34 l37 34 3 354 c2 321 1
356 -15 388 -22 43 -73 70 -133 70 -98 0 -150 -57 -150 -163 0 -51 -4 -61 -34
-95 l-34 -37 -194 -3 c-216 -4 -253 2 -292 49 -22 26 -26 41 -26 92 0 109 -51
157 -166 157 -50 0 -59 3 -90 34 -30 30 -34 40 -35 87 0 75 -18 119 -58 146
-33 22 -42 23 -238 23 -225 0 -250 5 -278 60 -8 16 -15 52 -15 80 0 110 -40
150 -150 150 -66 0 -73 -2 -108 -34z m804 -880 l34 -34 0 -193 c-1 -182 -2
-192 -16 -159 -22 50 -52 79 -109 106 -42 20 -66 24 -155 24 -100 0 -104 1
-74 16 44 21 64 62 64 129 0 108 38 145 148 145 71 0 75 -1 108 -34z m-329
-563 c20 -9 44 -30 54 -47 18 -29 19 -52 17 -389 l-3 -359 -37 -34 -38 -34
-350 0 c-388 0 -392 1 -430 63 -19 30 -20 52 -20 370 0 379 1 386 68 425 36
21 47 22 370 22 292 0 338 -2 369 -17z m-1016 -1106 c19 -14 50 -32 69 -40
l35 -15 -58 -1 c-53 -1 -62 -4 -93 -35 -31 -31 -34 -39 -34 -95 0 -106 -49
-161 -143 -161 -105 0 -147 41 -147 145 0 112 26 140 142 149 38 3 77 10 88
16 34 18 60 71 60 120 l0 45 24 -51 c13 -28 39 -63 57 -77z"/>
<path d="M7927 2333 c-4 -3 -7 -64 -7 -134 0 -117 2 -129 19 -139 11 -5 67
-10 125 -10 143 0 146 3 146 146 0 58 -5 114 -10 125 -10 17 -22 19 -139 19
-70 0 -131 -3 -134 -7z"/>
<path d="M7384 3791 c-42 -26 -57 -67 -52 -147 4 -60 7 -70 36 -95 29 -26 39
-29 107 -29 68 0 77 3 107 29 29 26 33 35 36 98 7 118 -34 163 -145 163 -39 0
-68 -6 -89 -19z"/>
<path d="M9143 3790 c-44 -27 -53 -48 -53 -130 0 -69 2 -74 34 -106 32 -32 38
-34 99 -34 36 0 77 4 91 10 41 15 66 66 66 133 0 105 -42 147 -147 147 -40 0
-68 -6 -90 -20z"/>
<path d="M3282 3207 c-53 -30 -57 -45 -62 -285 l-5 -224 -33 -29 -32 -29 -206
0 c-312 0 -304 8 -304 -295 0 -177 2 -211 17 -236 23 -38 69 -59 133 -59 97 0
140 -45 140 -145 0 -100 -43 -145 -140 -145 -29 0 -67 -7 -86 -16 -59 -28 -64
-48 -64 -279 0 -177 2 -211 17 -236 23 -39 70 -59 137 -59 93 0 136 -44 136
-140 0 -110 51 -155 163 -148 53 3 72 9 92 28 30 28 45 76 45 144 0 41 5 53
34 82 32 32 39 34 98 34 104 0 158 49 158 145 0 57 -21 109 -52 128 -12 8 -52
17 -88 20 -120 8 -150 40 -150 155 0 105 39 142 150 142 55 0 64 3 97 34 35
32 37 38 41 107 7 113 42 149 147 149 102 0 145 -43 145 -145 0 -100 -43 -145
-140 -145 -109 0 -150 -42 -150 -154 0 -55 4 -69 26 -95 28 -34 76 -51 146
-51 38 0 54 -6 80 -29 l33 -29 5 -224 c4 -169 8 -228 19 -244 25 -37 65 -54
128 -54 105 0 141 36 150 150 6 67 10 78 39 108 29 29 38 32 91 32 111 0 163
51 163 162 0 50 4 62 29 90 l29 33 809 5 c758 5 810 6 835 23 54 37 60 68 56
293 l-3 206 -37 34 -38 34 -210 0 c-233 0 -257 -5 -285 -60 -8 -16 -15 -55
-15 -87 0 -63 -21 -107 -62 -129 -17 -10 -108 -13 -376 -14 -388 0 -397 1
-427 60 -19 37 -19 133 0 170 20 40 63 60 125 60 109 0 150 42 150 156 0 62
-2 68 -34 100 l-34 34 -222 0 -222 0 -34 -34 c-30 -30 -34 -40 -35 -87 -1
-116 -47 -169 -146 -169 -56 0 -99 16 -124 46 -11 13 -15 67 -19 238 -7 314 1
306 -304 306 -107 0 -206 4 -220 10 -41 15 -66 66 -66 133 0 102 42 147 140
147 110 0 155 50 148 164 -4 62 -7 71 -36 97 l-32 29 -218 0 c-155 -1 -223 -4
-240 -13z"/>
<path d="M4159 3205 c-54 -29 -61 -65 -57 -291 l3 -206 37 -34 c35 -32 42 -34
108 -34 66 0 73 2 108 34 l37 34 3 194 c2 106 0 208 -3 227 -4 19 -20 47 -37
63 -27 25 -37 28 -102 28 -42 -1 -82 -7 -97 -15z"/>
<path d="M5314 3186 c-33 -33 -34 -37 -34 -108 0 -110 39 -148 150 -148 58 0
103 -20 122 -53 9 -15 15 -90 18 -244 5 -218 5 -222 29 -247 54 -58 171 -58
228 -1 29 29 33 40 34 87 1 118 46 168 154 168 49 0 68 5 90 22 70 55 73 183
5 243 -16 15 -42 21 -101 26 -113 8 -149 48 -149 165 0 50 -3 59 -34 90 l-34
34 -222 0 -222 0 -34 -34z"/>
<path d="M6201 3194 c-37 -31 -55 -90 -46 -148 14 -87 61 -120 162 -114 55 3
68 8 95 36 27 26 32 40 36 92 5 69 -9 111 -46 140 -19 16 -40 20 -98 20 -63 0
-76 -3 -103 -26z"/>
<path d="M1213 2896 c-33 -30 -37 -39 -41 -93 -5 -72 14 -120 57 -146 25 -15
59 -17 236 -17 231 0 251 5 279 64 20 43 21 118 1 160 -29 61 -49 66 -284 66
l-211 0 -37 -34z"/>
<path d="M2108 2912 c-79 -48 -77 -208 1 -255 25 -15 59 -17 236 -17 177 0
211 2 236 17 79 47 79 209 0 256 -25 15 -59 17 -238 17 -178 0 -212 -3 -235
-18z"/>
<path d="M4748 2914 c-39 -20 -58 -64 -58 -129 0 -106 42 -145 156 -145 62 0
68 2 100 34 33 33 34 37 34 108 0 81 -12 108 -60 133 -37 19 -137 19 -172 -1z"/>
<path d="M6508 2914 c-38 -20 -58 -63 -58 -124 0 -102 -45 -150 -140 -150 -64
0 -113 -20 -137 -56 -16 -25 -18 -52 -18 -239 0 -187 2 -214 18 -239 26 -40
79 -59 150 -54 48 4 63 9 89 35 28 28 32 40 38 114 7 76 10 85 39 111 25 22
41 28 79 28 70 0 118 17 146 51 l26 31 0 217 c0 237 -2 246 -60 276 -37 19
-137 19 -172 -1z"/>
<path d="M9152 2624 c-45 -23 -62 -60 -62 -140 0 -61 2 -68 33 -99 57 -57 174
-57 227 1 21 21 25 38 28 99 4 72 3 74 -31 111 -32 35 -39 38 -98 41 -46 3
-73 -1 -97 -13z"/>
<path d="M486 2320 c-67 -26 -140 -100 -169 -170 -22 -55 -22 -56 -25 -785 -3
-759 0 -831 39 -906 29 -58 93 -115 157 -141 l57 -23 775 0 775 0 55 22 c66
27 130 87 162 152 l23 46 3 793 2 794 -26 59 c-18 39 -44 76 -76 104 -88 79
-44 75 -922 75 -747 -1 -783 -2 -830 -20z m1439 -289 c49 -23 89 -64 109 -113
24 -56 24 -1140 0 -1196 -19 -47 -58 -88 -106 -113 -35 -18 -66 -19 -607 -19
-377 0 -579 4 -598 11 -38 14 -90 65 -116 114 -22 40 -22 45 -22 605 0 560 0
565 22 605 11 22 34 52 50 67 61 58 48 57 663 57 529 1 568 -1 605 -18z"/>
<path d="M965 1750 c-11 -4 -33 -22 -50 -40 l-30 -31 -3 -347 c-2 -322 -1
-350 16 -382 36 -68 47 -70 420 -70 381 0 386 1 422 74 19 40 20 60 20 367 0
362 -2 371 -69 416 -34 23 -37 23 -370 22 -185 0 -345 -4 -356 -9z"/>
<path d="M5314 2306 c-32 -32 -34 -38 -34 -102 0 -118 48 -162 167 -152 45 4
60 11 86 37 31 30 32 35 32 112 0 78 -1 81 -33 110 -30 27 -38 29 -108 29 -73
0 -77 -1 -110 -34z"/>
<path d="M8838 1437 c-50 -40 -64 -131 -30 -197 46 -93 218 -93 264 0 33 66
17 169 -33 204 -17 11 -45 16 -99 16 -63 0 -79 -4 -102 -23z"/>
<path d="M4434 1136 c-31 -31 -34 -40 -34 -90 0 -114 -45 -166 -144 -166 -108
0 -156 -51 -156 -166 0 -50 -3 -59 -34 -90 -29 -29 -41 -34 -82 -34 -68 0
-116 -15 -145 -46 -21 -23 -24 -35 -24 -104 0 -64 4 -82 20 -100 39 -44 72
-50 272 -50 159 0 193 3 223 18 46 23 70 72 70 144 0 93 55 138 170 138 52 0
83 18 105 60 22 42 22 418 0 460 -22 43 -63 60 -141 60 -62 0 -68 -2 -100 -34z"/>
<path d="M5314 1136 c-33 -33 -34 -37 -34 -110 0 -70 2 -78 29 -108 l29 -33
364 -3 c392 -2 392 -2 432 51 17 23 21 43 21 99 0 68 -1 70 -37 104 l-38 34
-366 0 -366 0 -34 -34z"/>
<path d="M8558 1154 c-38 -20 -58 -63 -58 -124 0 -110 50 -155 164 -148 61 4
72 7 96 35 54 60 48 178 -11 227 -26 22 -40 26 -97 26 -40 -1 -78 -7 -94 -16z"/>
<path d="M3578 864 c-41 -22 -58 -63 -58 -140 0 -62 2 -68 34 -100 33 -33 37
-34 110 -34 69 0 78 2 108 29 29 26 33 35 36 98 5 84 -11 123 -62 147 -42 20
-132 20 -168 0z"/>
<path d="M5042 860 c-82 -50 -82 -213 -1 -255 15 -9 55 -15 89 -15 34 0 74 6
89 15 81 42 81 205 -1 255 -45 27 -131 27 -176 0z"/>
<path d="M6213 860 c-56 -33 -58 -45 -58 -275 0 -299 -4 -295 295 -295 295 0
290 -5 290 295 0 304 9 295 -292 295 -183 0 -206 -2 -235 -20z"/>
<path d="M7695 871 c-43 -18 -68 -59 -73 -115 -5 -66 11 -119 45 -146 24 -19
40 -20 248 -20 208 0 224 1 248 20 34 27 50 80 45 147 -4 45 -11 60 -37 86
l-31 32 -213 2 c-116 1 -221 -2 -232 -6z"/>
<path d="M3010 577 c-51 -18 -80 -67 -80 -136 0 -69 26 -116 75 -137 49 -20
391 -20 440 0 67 28 96 127 61 211 -27 64 -47 70 -266 72 -135 2 -206 -1 -230
-10z"/>
<path d="M4774 580 c-55 -17 -78 -53 -82 -128 -3 -78 8 -106 57 -139 65 -44
185 -23 216 38 18 33 20 138 3 173 -6 14 -21 32 -34 41 -29 19 -119 27 -160
15z"/>
<path d="M5654 579 c-16 -5 -41 -20 -55 -35 -21 -23 -24 -35 -24 -105 0 -75 1
-80 32 -111 27 -27 41 -32 91 -36 113 -8 162 38 162 151 0 56 -4 70 -26 96
-38 45 -109 61 -180 40z"/>
<path d="M7128 583 c-88 -13 -127 -159 -66 -245 30 -43 73 -50 291 -46 l199 3
34 37 c32 35 34 42 34 107 0 60 -4 74 -26 100 -14 17 -42 35 -62 41 -35 9
-346 12 -404 3z"/>
<path d="M8580 577 c-51 -18 -80 -67 -80 -136 0 -94 40 -140 128 -149 109 -10
165 38 166 143 1 67 -14 106 -50 130 -32 21 -122 28 -164 12z"/>
</g>
</svg>
